<svg xmlns="http://www.w3.org/2000/svg" xmlns:xlink="http://www.w3.org/1999/xlink" width="1920" zoomAndPan="magnify" viewBox="0 0 1440 809.999993" height="1080" preserveAspectRatio="xMidYMid meet" version="1.0"><defs><g/><clipPath id="c74f0fbf03"><rect x="0" width="1406" y="0" height="562"/></clipPath></defs><g transform="matrix(1, 0, 0, 1, 0, 123)"><g clip-path="url(#c74f0fbf03)"><g fill="#ffffff" fill-opacity="1"><g transform="translate(16.862596, 300.724354)"><g><path d="M 44.453125 15.28125 C 44.046875 15.289062 43.84375 15.191406 43.84375 14.984375 C 43.8125 14.160156 44.597656 13.210938 46.203125 12.140625 C 55.816406 4.460938 65.316406 -5.207031 74.703125 -16.875 C 84.097656 -28.539062 92.789062 -41.207031 100.78125 -54.875 C 108.78125 -68.550781 115.585938 -82.550781 121.203125 -96.875 C 126.816406 -111.195312 130.660156 -124.851562 132.734375 -137.84375 C 133.066406 -140.519531 133.347656 -143.09375 133.578125 -145.5625 C 133.804688 -148.03125 133.890625 -150.289062 133.828125 -152.34375 C 133.585938 -160.53125 131.648438 -167.03125 128.015625 -171.84375 C 124.378906 -176.65625 118.773438 -178.945312 111.203125 -178.71875 C 102.191406 -178.238281 93.046875 -175.445312 83.765625 -170.34375 C 74.484375 -165.238281 65.660156 -158.5625 57.296875 -150.3125 C 48.929688 -142.070312 41.257812 -132.867188 34.28125 -122.703125 C 27.3125 -112.546875 21.53125 -102.066406 16.9375 -91.265625 C 12.34375 -80.460938 9.375 -70.117188 8.03125 -60.234375 C 7.6875 -57.753906 7.441406 -55.488281 7.296875 -53.4375 C 7.160156 -51.394531 7.117188 -49.453125 7.171875 -47.609375 C 7.378906 -40.835938 8.90625 -36.160156 11.75 -33.578125 C 14.601562 -31.003906 18.382812 -29.785156 23.09375 -29.921875 C 29.445312 -30.117188 36.660156 -32.390625 44.734375 -36.734375 C 52.804688 -41.078125 60.828125 -47.0625 68.796875 -54.6875 C 76.773438 -62.3125 84.097656 -71.09375 90.765625 -81.03125 C 97.429688 -90.96875 102.742188 -101.6875 106.703125 -113.1875 C 110.671875 -124.695312 112.570312 -136.503906 112.40625 -148.609375 C 112.363281 -150.242188 112.648438 -151.070312 113.265625 -151.09375 C 113.878906 -151.101562 114.613281 -150.40625 115.46875 -149 C 116.332031 -147.59375 116.789062 -146.066406 116.84375 -144.421875 C 117.144531 -134.171875 115.460938 -123.503906 111.796875 -112.421875 C 108.140625 -101.347656 103.082031 -90.585938 96.625 -80.140625 C 90.175781 -69.691406 82.820312 -60.289062 74.5625 -51.9375 C 66.300781 -43.582031 57.785156 -36.863281 49.015625 -31.78125 C 40.253906 -26.695312 31.671875 -24.023438 23.265625 -23.765625 C 16.097656 -23.554688 10.082031 -25.785156 5.21875 -30.453125 C 0.363281 -35.128906 -2.207031 -42.382812 -2.5 -52.21875 C -2.601562 -55.695312 -2.40625 -59.394531 -1.90625 -63.3125 C -0.570312 -73.207031 2.644531 -83.613281 7.75 -94.53125 C 12.851562 -105.445312 19.300781 -116.046875 27.09375 -126.328125 C 34.882812 -136.617188 43.472656 -145.953125 52.859375 -154.328125 C 62.242188 -162.710938 71.984375 -169.46875 82.078125 -174.59375 C 92.179688 -179.726562 102.050781 -182.441406 111.6875 -182.734375 C 123.363281 -183.078125 132.269531 -180.0625 138.40625 -173.6875 C 144.550781 -167.3125 147.785156 -158.800781 148.109375 -148.15625 C 148.171875 -146.101562 148.132812 -143.992188 148 -141.828125 C 147.863281 -139.671875 147.625 -137.460938 147.28125 -135.203125 C 143.300781 -110.671875 134.726562 -87.082031 121.5625 -64.4375 C 108.40625 -41.789062 92.554688 -21.773438 74.015625 -4.390625 C 80.035156 -8.671875 87.375 -15.195312 96.03125 -23.96875 C 104.6875 -32.75 113.972656 -42.722656 123.890625 -53.890625 C 133.804688 -65.054688 143.503906 -76.53125 152.984375 -88.3125 C 161.890625 -99.238281 171.546875 -110.550781 181.953125 -122.25 C 192.367188 -133.945312 203.113281 -144.882812 214.1875 -155.0625 C 225.269531 -165.238281 236.148438 -173.515625 246.828125 -179.890625 C 257.503906 -186.265625 267.453125 -189.59375 276.671875 -189.875 C 280.773438 -190 284.835938 -189.554688 288.859375 -188.546875 C 292.890625 -187.546875 296.28125 -185.597656 299.03125 -182.703125 C 301.789062 -179.804688 303.25 -175.691406 303.40625 -170.359375 C 303.488281 -167.691406 302.753906 -164.851562 301.203125 -161.84375 C 299.648438 -158.832031 297.453125 -156.976562 294.609375 -156.28125 C 296.566406 -159.195312 297.476562 -162.804688 297.34375 -167.109375 C 297.070312 -176.117188 290.078125 -180.421875 276.359375 -180.015625 C 267.335938 -179.734375 257.640625 -176.5625 247.265625 -170.5 C 236.890625 -164.445312 226.304688 -156.539062 215.515625 -146.78125 C 204.734375 -137.03125 194.332031 -126.617188 184.3125 -115.546875 C 174.300781 -104.472656 165.039062 -93.679688 156.53125 -83.171875 C 147.632812 -72.242188 138.625 -61.613281 129.5 -51.28125 C 120.382812 -40.957031 111.640625 -31.671875 103.265625 -23.421875 C 94.898438 -15.171875 87.359375 -8.632812 80.640625 -3.8125 C 73.921875 1 68.613281 3.460938 64.71875 3.578125 C 60.507812 6.992188 56.335938 9.789062 52.203125 11.96875 C 48.066406 14.144531 45.484375 15.25 44.453125 15.28125 Z M 44.453125 15.28125 "/></g></g></g><g fill="#ffffff" fill-opacity="1"><g transform="translate(171.774913, 296.040543)"><g><path d="M 12.046875 1.171875 C 6.097656 1.347656 1.800781 -0.00390625 -0.84375 -2.890625 C -3.5 -5.785156 -4.894531 -9.488281 -5.03125 -14 C -5.207031 -19.726562 -3.722656 -26.539062 -0.578125 -34.4375 C 2.566406 -42.332031 6.882812 -50.359375 12.375 -58.515625 C 17.863281 -66.679688 24.09375 -74.304688 31.0625 -81.390625 C 38.039062 -88.472656 45.203125 -94.222656 52.546875 -98.640625 C 59.898438 -103.066406 67.0625 -105.382812 74.03125 -105.59375 C 79.15625 -105.75 82.882812 -104.53125 85.21875 -101.9375 C 87.550781 -99.34375 88.78125 -95.894531 88.90625 -91.59375 C 89.082031 -85.851562 87.648438 -78.988281 84.609375 -71 C 81.578125 -63.007812 77.363281 -54.878906 71.96875 -46.609375 C 66.570312 -38.347656 60.546875 -30.632812 53.890625 -23.46875 C 47.242188 -16.300781 40.296875 -10.453125 33.046875 -5.921875 C 25.796875 -1.398438 18.796875 0.960938 12.046875 1.171875 Z M 15.5625 -4.78125 C 19.851562 -4.914062 24.953125 -7.273438 30.859375 -11.859375 C 36.773438 -16.441406 42.800781 -22.3125 48.9375 -29.46875 C 55.082031 -36.632812 60.75 -44.238281 65.9375 -52.28125 C 71.132812 -60.332031 75.316406 -67.945312 78.484375 -75.125 C 81.648438 -82.300781 83.164062 -88.140625 83.03125 -92.640625 C 82.882812 -97.566406 80.457031 -99.957031 75.75 -99.8125 C 71.851562 -99.695312 67.050781 -97.242188 61.34375 -92.453125 C 55.632812 -87.671875 49.765625 -81.597656 43.734375 -74.234375 C 37.710938 -66.867188 32.050781 -59.109375 26.75 -50.953125 C 21.457031 -42.796875 17.234375 -35.082031 14.078125 -27.8125 C 10.921875 -20.539062 9.40625 -14.851562 9.53125 -10.75 C 9.65625 -6.65625 11.664062 -4.664062 15.5625 -4.78125 Z M 92.71875 -97.875 C 90.25 -97.800781 88.1875 -97.992188 86.53125 -98.453125 C 84.882812 -98.910156 83.546875 -99.226562 82.515625 -99.40625 L 83.375 -101.578125 C 83.988281 -101.597656 84.707031 -101.570312 85.53125 -101.5 C 86.351562 -101.425781 87.171875 -101.398438 87.984375 -101.421875 C 90.242188 -101.492188 92.019531 -102.160156 93.3125 -103.421875 C 94.613281 -104.691406 95.210938 -107.066406 95.109375 -110.546875 C 94.972656 -115.054688 95.925781 -117.34375 97.96875 -117.40625 C 100.226562 -117.476562 101.679688 -116.90625 102.328125 -115.6875 C 102.984375 -114.476562 103.425781 -113.472656 103.65625 -112.671875 C 104.4375 -107.359375 103.523438 -103.582031 100.921875 -101.34375 C 98.316406 -99.113281 95.582031 -97.957031 92.71875 -97.875 Z M -5.609375 38.625 C -7.660156 38.6875 -9.367188 38.070312 -10.734375 36.78125 C -12.109375 35.488281 -12.828125 33.820312 -12.890625 31.78125 C -12.984375 28.90625 -11.929688 26.359375 -9.734375 24.140625 C -7.546875 21.921875 -5.117188 20.769531 -2.453125 20.6875 C -0.191406 20.613281 1.570312 21.222656 2.84375 22.515625 C 4.113281 23.816406 4.78125 25.488281 4.84375 27.53125 C 4.914062 30.195312 3.859375 32.691406 1.671875 35.015625 C -0.515625 37.335938 -2.941406 38.539062 -5.609375 38.625 Z M -5.609375 38.625 "/></g></g></g><g fill="#ffffff" fill-opacity="1"><g transform="translate(251.07527, 293.642878)"><g/></g></g><g fill="#ffffff" fill-opacity="1"><g transform="translate(300.253781, 292.155955)"><g><path d="M 24.03125 1.4375 C 20.132812 1.550781 16.125 1.101562 12 0.09375 C 7.875 -0.90625 4.425781 -3.003906 1.65625 -6.203125 C -1.101562 -9.398438 -2.582031 -14.175781 -2.78125 -20.53125 C -2.988281 -27.5 -1.363281 -34.828125 2.09375 -42.515625 C 5.5625 -50.203125 10.304688 -57.726562 16.328125 -65.09375 C 22.359375 -72.46875 28.976562 -79.128906 36.1875 -85.078125 C 43.394531 -91.035156 50.6875 -95.816406 58.0625 -99.421875 C 65.4375 -103.035156 72.300781 -104.9375 78.65625 -105.125 C 82.539062 -105.238281 85.28125 -104.34375 86.875 -102.4375 C 88.476562 -100.539062 89.316406 -98.257812 89.390625 -95.59375 C 89.472656 -92.9375 88.9375 -90.363281 87.78125 -87.875 C 86.070312 -83.507812 82.976562 -79.054688 78.5 -74.515625 C 74.019531 -69.972656 68.804688 -67.609375 62.859375 -67.421875 C 60.609375 -67.359375 59.304688 -68.140625 58.953125 -69.765625 C 58.597656 -71.398438 58.609375 -72.628906 58.984375 -73.453125 C 61.835938 -74.367188 65.679688 -76.285156 70.515625 -79.203125 C 75.347656 -82.117188 79.113281 -86.488281 81.8125 -92.3125 C 82.382812 -93.550781 82.65625 -94.679688 82.625 -95.703125 C 82.53125 -98.773438 80.644531 -100.257812 76.96875 -100.15625 C 72.25 -100.007812 66.238281 -96.90625 58.9375 -90.84375 C 51.644531 -84.78125 43.648438 -76.175781 34.953125 -65.03125 C 28.828125 -57.46875 23.773438 -49.882812 19.796875 -42.28125 C 15.828125 -34.675781 13.960938 -26.976562 14.203125 -19.1875 C 14.335938 -14.488281 15.363281 -10.78125 17.28125 -8.0625 C 19.207031 -5.34375 22.628906 -4.0625 27.546875 -4.21875 C 33.898438 -4.40625 39.644531 -6.113281 44.78125 -9.34375 C 49.914062 -12.582031 54.664062 -16.675781 59.03125 -21.625 C 63.394531 -26.570312 67.550781 -31.460938 71.5 -36.296875 C 72.320312 -36.328125 72.753906 -35.726562 72.796875 -34.5 C 72.847656 -32.65625 72.476562 -31.207031 71.6875 -30.15625 C 67.738281 -25.3125 63.476562 -20.460938 58.90625 -15.609375 C 54.332031 -10.765625 49.222656 -6.769531 43.578125 -3.625 C 37.929688 -0.476562 31.414062 1.207031 24.03125 1.4375 Z M 24.03125 1.4375 "/></g></g></g><g fill="#ffffff" fill-opacity="1"><g transform="translate(372.792089, 289.962742)"><g><path d="M 46.453125 -0.171875 C 42.753906 -0.0546875 40.0625 -0.898438 38.375 -2.703125 C 36.6875 -4.503906 35.796875 -6.835938 35.703125 -9.703125 C 35.628906 -12.160156 36.140625 -15.65625 37.234375 -20.1875 C 39.671875 -27.65625 43.332031 -35.304688 48.21875 -43.140625 C 53.101562 -50.984375 58.460938 -58.53125 64.296875 -65.78125 C 70.140625 -73.039062 75.734375 -79.671875 81.078125 -85.671875 C 86.429688 -91.671875 90.695312 -96.566406 93.875 -100.359375 C 90.800781 -100.265625 87.492188 -99.34375 83.953125 -97.59375 C 80.421875 -95.851562 76.847656 -93.796875 73.234375 -91.421875 C 64.597656 -85.015625 55.953125 -77.472656 47.296875 -68.796875 C 38.640625 -60.128906 30.601562 -51.273438 23.1875 -42.234375 C 15.769531 -33.191406 9.503906 -24.898438 4.390625 -17.359375 C -0.710938 -9.828125 -3.921875 -3.988281 -5.234375 0.15625 C -8.503906 0.257812 -10.203125 -1.738281 -10.328125 -5.84375 C -10.429688 -9.320312 -9.535156 -13.703125 -7.640625 -18.984375 C -5.753906 -24.273438 -3.359375 -29.632812 -0.453125 -35.0625 C 6.160156 -46.9375 14.332031 -59.84375 24.0625 -73.78125 C 33.800781 -87.71875 43.921875 -100.796875 54.421875 -113.015625 C 63.734375 -123.960938 73.894531 -133.910156 84.90625 -142.859375 C 95.914062 -151.804688 107.507812 -158.203125 119.6875 -162.046875 C 121.519531 -162.710938 123.660156 -163.285156 126.109375 -163.765625 C 128.554688 -164.253906 131.113281 -164.539062 133.78125 -164.625 C 138.695312 -164.769531 142.921875 -164.179688 146.453125 -162.859375 C 148.097656 -162.078125 149.757812 -161.050781 151.4375 -159.78125 C 153.125 -158.507812 154.3125 -156.648438 155 -154.203125 C 152.6875 -155.984375 150.082031 -157.285156 147.1875 -158.109375 C 144.289062 -158.941406 140.796875 -159.300781 136.703125 -159.1875 C 128.703125 -158.9375 120.625 -156.378906 112.46875 -151.515625 C 104.3125 -146.660156 96.59375 -140.84375 89.3125 -134.0625 C 82.039062 -127.28125 75.679688 -120.578125 70.234375 -113.953125 C 64.796875 -107.328125 60.59375 -102.125 57.625 -98.34375 C 49.9375 -88.269531 43.195312 -78.882812 37.40625 -70.1875 C 31.613281 -61.5 26.757812 -54.128906 22.84375 -48.078125 C 30.769531 -57.335938 39.460938 -66.671875 48.921875 -76.078125 C 58.378906 -85.484375 67.128906 -92.976562 75.171875 -98.5625 C 77.785156 -100.488281 80.503906 -102.109375 83.328125 -103.421875 C 86.148438 -104.734375 89.097656 -105.4375 92.171875 -105.53125 C 97.703125 -105.695312 100.535156 -103.628906 100.671875 -99.328125 C 100.765625 -96.046875 98.929688 -92.097656 95.171875 -87.484375 C 88.242188 -79.066406 81.242188 -69.773438 74.171875 -59.609375 C 67.097656 -49.453125 61.144531 -39.378906 56.3125 -29.390625 C 55.550781 -27.921875 54.257812 -25.0625 52.4375 -20.8125 C 50.625 -16.5625 49.757812 -13 49.84375 -10.125 C 49.914062 -7.664062 51.070312 -6.46875 53.3125 -6.53125 C 58.03125 -6.675781 63.679688 -9.867188 70.265625 -16.109375 C 76.847656 -22.359375 83.203125 -29.269531 89.328125 -36.84375 C 90.148438 -36.863281 90.582031 -36.257812 90.625 -35.03125 C 90.675781 -33.1875 90.304688 -31.742188 89.515625 -30.703125 C 86.734375 -27.535156 83.210938 -23.582031 78.953125 -18.84375 C 74.691406 -14.101562 69.84375 -9.851562 64.40625 -6.09375 C 58.976562 -2.34375 52.992188 -0.367188 46.453125 -0.171875 Z M 46.453125 -0.171875 "/></g></g></g><g fill="#ffffff" fill-opacity="1"><g transform="translate(463.157586, 287.23052)"><g><path d="M 12.046875 1.171875 C 6.097656 1.347656 1.800781 -0.00390625 -0.84375 -2.890625 C -3.5 -5.785156 -4.894531 -9.488281 -5.03125 -14 C -5.207031 -19.726562 -3.722656 -26.539062 -0.578125 -34.4375 C 2.566406 -42.332031 6.882812 -50.359375 12.375 -58.515625 C 17.863281 -66.679688 24.09375 -74.304688 31.0625 -81.390625 C 38.039062 -88.472656 45.203125 -94.222656 52.546875 -98.640625 C 59.898438 -103.066406 67.0625 -105.382812 74.03125 -105.59375 C 79.15625 -105.75 82.882812 -104.53125 85.21875 -101.9375 C 87.550781 -99.34375 88.78125 -95.894531 88.90625 -91.59375 C 89.082031 -85.851562 87.648438 -78.988281 84.609375 -71 C 81.578125 -63.007812 77.363281 -54.878906 71.96875 -46.609375 C 66.570312 -38.347656 60.546875 -30.632812 53.890625 -23.46875 C 47.242188 -16.300781 40.296875 -10.453125 33.046875 -5.921875 C 25.796875 -1.398438 18.796875 0.960938 12.046875 1.171875 Z M 15.5625 -4.78125 C 19.851562 -4.914062 24.953125 -7.273438 30.859375 -11.859375 C 36.773438 -16.441406 42.800781 -22.3125 48.9375 -29.46875 C 55.082031 -36.632812 60.75 -44.238281 65.9375 -52.28125 C 71.132812 -60.332031 75.316406 -67.945312 78.484375 -75.125 C 81.648438 -82.300781 83.164062 -88.140625 83.03125 -92.640625 C 82.882812 -97.566406 80.457031 -99.957031 75.75 -99.8125 C 71.851562 -99.695312 67.050781 -97.242188 61.34375 -92.453125 C 55.632812 -87.671875 49.765625 -81.597656 43.734375 -74.234375 C 37.710938 -66.867188 32.050781 -59.109375 26.75 -50.953125 C 21.457031 -42.796875 17.234375 -35.082031 14.078125 -27.8125 C 10.921875 -20.539062 9.40625 -14.851562 9.53125 -10.75 C 9.65625 -6.65625 11.664062 -4.664062 15.5625 -4.78125 Z M 51.1875 -117.84375 C 50.164062 -117.8125 49.851562 -118.003906 50.25 -118.421875 C 50.238281 -118.628906 51.632812 -119.847656 54.4375 -122.078125 C 57.25 -124.316406 60.660156 -126.929688 64.671875 -129.921875 C 68.679688 -132.910156 72.742188 -135.75 76.859375 -138.4375 C 80.984375 -141.132812 84.46875 -143.140625 87.3125 -144.453125 C 88.113281 -144.898438 89.128906 -145.140625 90.359375 -145.171875 C 91.796875 -145.210938 93.726562 -144.039062 96.15625 -141.65625 C 98.59375 -139.269531 101.035156 -136.472656 103.484375 -133.265625 C 105.941406 -130.054688 107.976562 -127.144531 109.59375 -124.53125 C 111.21875 -121.914062 112.035156 -120.503906 112.046875 -120.296875 C 111.640625 -119.867188 111.128906 -119.648438 110.515625 -119.640625 C 108.878906 -119.585938 106.59375 -120.539062 103.65625 -122.5 C 100.726562 -124.457031 97.738281 -126.671875 94.6875 -129.140625 C 91.632812 -131.617188 88.863281 -133.4375 86.375 -134.59375 C 83.125 -133.257812 79.179688 -131.238281 74.546875 -128.53125 C 69.921875 -125.832031 65.484375 -123.394531 61.234375 -121.21875 C 56.992188 -119.039062 53.644531 -117.914062 51.1875 -117.84375 Z M 121.28125 -150.109375 C 119.4375 -150.054688 116.078125 -150.929688 111.203125 -152.734375 C 106.335938 -154.535156 101.144531 -156.679688 95.625 -159.171875 C 90.113281 -161.671875 85.320312 -164.085938 81.25 -166.421875 C 77.1875 -168.765625 75.132812 -170.550781 75.09375 -171.78125 C 75.0625 -173.007812 75.691406 -174.207031 76.984375 -175.375 C 78.285156 -176.550781 79.441406 -177.15625 80.453125 -177.1875 C 81.273438 -177.207031 83.203125 -176.335938 86.234375 -174.578125 C 89.265625 -172.828125 92.816406 -170.679688 96.890625 -168.140625 C 100.960938 -165.597656 104.9375 -163.050781 108.8125 -160.5 C 112.6875 -157.957031 115.929688 -155.75 118.546875 -153.875 C 121.160156 -152.007812 122.472656 -150.972656 122.484375 -150.765625 C 122.492188 -150.359375 122.09375 -150.140625 121.28125 -150.109375 Z M 121.28125 -150.109375 "/></g></g></g><g fill="#ffffff" fill-opacity="1"><g transform="translate(542.457942, 284.832855)"><g><path d="M 48.578125 -1.15625 C 44.273438 -1.019531 41.164062 -2.101562 39.25 -4.40625 C 37.332031 -6.71875 36.316406 -9.71875 36.203125 -13.40625 C 36.035156 -18.9375 37.789062 -25.289062 41.46875 -32.46875 C 45.15625 -39.65625 50.003906 -47.238281 56.015625 -55.21875 C 62.023438 -63.195312 68.347656 -71.078125 74.984375 -78.859375 C 81.617188 -86.640625 87.914062 -93.804688 93.875 -100.359375 C 90.800781 -100.265625 87.492188 -99.34375 83.953125 -97.59375 C 80.421875 -95.851562 76.847656 -93.796875 73.234375 -91.421875 C 67.804688 -87.578125 61.90625 -82.476562 55.53125 -76.125 C 49.164062 -69.78125 42.804688 -63.023438 36.453125 -55.859375 C 30.109375 -48.703125 24.066406 -41.644531 18.328125 -34.6875 C 13.785156 -29.019531 10.1875 -24.300781 7.53125 -20.53125 C 4.875 -16.769531 2.617188 -13.367188 0.765625 -10.328125 C -1.085938 -7.296875 -3.09375 -3.90625 -5.25 -0.15625 C -8.519531 -0.0507812 -10.210938 -1.945312 -10.328125 -5.84375 C -10.453125 -9.9375 -9.316406 -14.890625 -6.921875 -20.703125 C -4.535156 -26.515625 -2.472656 -31.09375 -0.734375 -34.4375 C 4.316406 -43.613281 10.125 -53.273438 16.6875 -63.421875 C 23.257812 -73.566406 29.40625 -82.515625 35.125 -90.265625 C 38.070312 -94.460938 41.253906 -97.585938 44.671875 -99.640625 C 48.085938 -101.691406 51.015625 -103.007812 53.453125 -103.59375 C 55.898438 -104.1875 57.125 -104.484375 57.125 -104.484375 C 55.957031 -102.597656 53.515625 -98.625 49.796875 -92.5625 C 46.085938 -86.507812 41.789062 -79.410156 36.90625 -71.265625 C 32.03125 -63.117188 27.050781 -54.863281 21.96875 -46.5 C 30.082031 -56.382812 38.816406 -66.03125 48.171875 -75.4375 C 57.523438 -84.84375 66.523438 -92.550781 75.171875 -98.5625 C 77.785156 -100.488281 80.503906 -102.109375 83.328125 -103.421875 C 86.148438 -104.734375 89.097656 -105.4375 92.171875 -105.53125 C 97.703125 -105.695312 100.535156 -103.628906 100.671875 -99.328125 C 100.765625 -96.046875 98.929688 -92.097656 95.171875 -87.484375 C 90.640625 -81.804688 85.707031 -75.5 80.375 -68.5625 C 75.050781 -61.632812 69.984375 -54.613281 65.171875 -47.5 C 60.359375 -40.382812 56.453125 -33.804688 53.453125 -27.765625 C 50.460938 -21.722656 49.019531 -16.863281 49.125 -13.1875 C 49.1875 -11.132812 49.796875 -9.660156 50.953125 -8.765625 C 52.109375 -7.878906 53.097656 -7.453125 53.921875 -7.484375 C 56.992188 -7.578125 60.382812 -8.910156 64.09375 -11.484375 C 67.8125 -14.054688 71.414062 -17.082031 74.90625 -20.5625 C 78.394531 -24.050781 81.472656 -27.375 84.140625 -30.53125 C 86.804688 -33.6875 88.535156 -35.789062 89.328125 -36.84375 C 90.148438 -36.863281 90.582031 -36.257812 90.625 -35.03125 C 90.675781 -33.1875 90.304688 -31.742188 89.515625 -30.703125 C 86.734375 -27.535156 83.054688 -23.628906 78.484375 -18.984375 C 73.910156 -14.335938 69.007812 -10.238281 63.78125 -6.6875 C 58.5625 -3.144531 53.492188 -1.300781 48.578125 -1.15625 Z M 48.578125 -1.15625 "/></g></g></g><g fill="#ffffff" fill-opacity="1"><g transform="translate(632.823439, 282.100633)"><g><path d="M -37.671875 76.8125 C -43.828125 77 -48.039062 76.664062 -50.3125 75.8125 C -52.59375 74.957031 -53.742188 74.222656 -53.765625 73.609375 C -53.785156 72.785156 -53.078125 72.351562 -51.640625 72.3125 C -50.617188 72.28125 -49.597656 72.300781 -48.578125 72.375 C -47.554688 72.445312 -46.632812 72.472656 -45.8125 72.453125 C -38.4375 72.222656 -31.128906 69.742188 -23.890625 65.015625 C -16.648438 60.285156 -9.65625 54.078125 -2.90625 46.390625 C 3.84375 38.703125 10.253906 30.253906 16.328125 21.046875 C 22.398438 11.835938 27.867188 2.742188 32.734375 -6.234375 C 34.472656 -9.554688 36.695312 -13.875 39.40625 -19.1875 C 42.125 -24.5 45.128906 -30.285156 48.421875 -36.546875 C 44.671875 -31.910156 41.207031 -27.796875 38.03125 -24.203125 C 34.863281 -20.617188 32.476562 -17.992188 30.875 -16.328125 C 26.488281 -12.085938 22.289062 -8.421875 18.28125 -5.328125 C 14.28125 -2.234375 10.035156 -0.410156 5.546875 0.140625 C -2.023438 0.773438 -5.945312 -3.414062 -6.21875 -12.4375 C -6.375 -17.34375 -5.117188 -23.269531 -2.453125 -30.21875 C 0.210938 -37.175781 4.300781 -44.53125 9.8125 -52.28125 C 13.75 -57.53125 18.597656 -63.164062 24.359375 -69.1875 C 30.128906 -75.207031 36.46875 -80.984375 43.375 -86.515625 C 50.28125 -92.054688 57.367188 -96.628906 64.640625 -100.234375 C 71.921875 -103.835938 79.039062 -105.742188 86 -105.953125 C 89.070312 -106.046875 91.238281 -105.648438 92.5 -104.765625 C 93.769531 -103.878906 94.625 -102.9375 95.0625 -101.9375 C 95.289062 -101.113281 95.3125 -100.394531 95.125 -99.78125 C 100.945312 -103.851562 106.421875 -105.96875 111.546875 -106.125 C 112.972656 -106.164062 113.90625 -105.988281 114.34375 -105.59375 C 105.882812 -100 98.453125 -92.953125 92.046875 -84.453125 C 85.640625 -75.960938 79.722656 -66.503906 74.296875 -56.078125 C 68.867188 -45.660156 63.503906 -34.9375 58.203125 -23.90625 C 52.898438 -12.882812 47.28125 -1.953125 41.34375 8.890625 C 35.414062 19.742188 28.691406 29.796875 21.171875 39.046875 C 12.285156 49.972656 2.613281 58.925781 -7.84375 65.90625 C -18.300781 72.894531 -28.242188 76.53125 -37.671875 76.8125 Z M 12.328125 -9.59375 C 13.765625 -9.644531 15.6875 -10.375 18.09375 -11.78125 C 20.507812 -13.1875 23.617188 -15.582031 27.421875 -18.96875 C 33.804688 -24.90625 40.253906 -32.125 46.765625 -40.625 C 53.273438 -49.125 59.582031 -57.570312 65.6875 -65.96875 C 70.195312 -72.664062 74.875 -79.0625 79.71875 -85.15625 C 84.5625 -91.257812 89.59375 -96.03125 94.8125 -99.46875 C 94.40625 -99.457031 94.203125 -99.550781 94.203125 -99.75 C 93.367188 -100.144531 91.722656 -100.300781 89.265625 -100.21875 C 81.898438 -100 73.25 -96.203125 63.3125 -88.828125 C 53.382812 -81.453125 43.671875 -71.976562 34.171875 -60.40625 C 27.429688 -52.40625 21.921875 -44.597656 17.640625 -36.984375 C 13.367188 -29.367188 10.59375 -23.078125 9.3125 -18.109375 C 8.9375 -16.472656 8.769531 -15.039062 8.8125 -13.8125 C 8.894531 -10.9375 10.066406 -9.53125 12.328125 -9.59375 Z M 12.328125 -9.59375 "/></g></g></g><g fill="#ffffff" fill-opacity="1"><g transform="translate(717.656365, 279.535689)"><g/></g></g><g fill="#ffffff" fill-opacity="1"><g transform="translate(766.834914, 278.048764)"><g><path d="M 90.0625 -2.40625 C 85.769531 -2.28125 82.664062 -3.367188 80.75 -5.671875 C 78.832031 -7.972656 77.816406 -10.96875 77.703125 -14.65625 C 77.535156 -20.1875 79.289062 -26.546875 82.96875 -33.734375 C 86.644531 -40.921875 91.488281 -48.5 97.5 -56.46875 C 103.519531 -64.445312 109.847656 -72.328125 116.484375 -80.109375 C 123.117188 -87.898438 129.414062 -95.070312 135.375 -101.625 C 132.300781 -101.53125 128.992188 -100.609375 125.453125 -98.859375 C 121.910156 -97.109375 118.335938 -95.046875 114.734375 -92.671875 C 109.109375 -88.609375 102.957031 -83.296875 96.28125 -76.734375 C 89.601562 -70.179688 82.992188 -63.164062 76.453125 -55.6875 C 69.910156 -48.207031 63.773438 -40.992188 58.046875 -34.046875 C 54.910156 -28.828125 52.082031 -23.921875 49.5625 -19.328125 C 47.039062 -14.742188 45.316406 -10.800781 44.390625 -7.5 C 40.234375 -9.007812 38.09375 -11.914062 37.96875 -16.21875 C 37.863281 -19.488281 38.671875 -23.304688 40.390625 -27.671875 C 43.828125 -35.984375 48.394531 -44.328125 54.09375 -52.703125 C 59.789062 -61.078125 65.953125 -69.3125 72.578125 -77.40625 C 79.203125 -85.5 85.375 -93.222656 91.09375 -100.578125 C 87.40625 -100.460938 82.84375 -98.734375 77.40625 -95.390625 C 71.96875 -92.046875 66.59375 -88.242188 61.28125 -83.984375 C 55.976562 -79.734375 51.742188 -75.8125 48.578125 -72.21875 C 44.410156 -67.582031 39.507812 -61.796875 33.875 -54.859375 C 28.238281 -47.929688 22.703125 -41.046875 17.265625 -34.203125 C 11.835938 -27.367188 7.453125 -21.550781 4.109375 -16.75 C 0.566406 -11.707031 -1.828125 -7.832031 -3.078125 -5.125 C -4.328125 -2.425781 -5.148438 -0.765625 -5.546875 -0.140625 C -8.828125 -0.046875 -10.523438 -1.945312 -10.640625 -5.84375 C -10.765625 -9.9375 -9.628906 -14.890625 -7.234375 -20.703125 C -4.847656 -26.515625 -2.785156 -31.085938 -1.046875 -34.421875 C 4.015625 -43.597656 9.828125 -53.257812 16.390625 -63.40625 C 22.953125 -73.550781 29.09375 -82.503906 34.8125 -90.265625 C 37.757812 -94.453125 40.941406 -97.570312 44.359375 -99.625 C 47.773438 -101.6875 50.707031 -103.007812 53.15625 -103.59375 C 55.601562 -104.175781 56.828125 -104.46875 56.828125 -104.46875 C 55.660156 -102.582031 53.265625 -98.710938 49.640625 -92.859375 C 46.023438 -87.015625 41.875 -80.175781 37.1875 -72.34375 C 32.507812 -64.507812 27.726562 -56.421875 22.84375 -48.078125 C 30.738281 -58.359375 39.054688 -68.242188 47.796875 -77.734375 C 56.535156 -87.222656 64.929688 -94.453125 72.984375 -99.421875 C 79.617188 -103.304688 85.910156 -105.34375 91.859375 -105.53125 C 96.578125 -105.664062 98.988281 -104.09375 99.09375 -100.8125 C 99.1875 -97.738281 97.65625 -94.003906 94.5 -89.609375 C 93.125 -87.734375 91.257812 -85.015625 88.90625 -81.453125 C 86.550781 -77.890625 84.445312 -74.640625 82.59375 -71.703125 C 80.738281 -68.773438 79.8125 -67.3125 79.8125 -67.3125 L 78.046875 -64.5 C 84.390625 -71.46875 90.851562 -78.019531 97.4375 -84.15625 C 104.019531 -90.300781 110.425781 -95.519531 116.65625 -99.8125 C 119.257812 -101.738281 121.972656 -103.359375 124.796875 -104.671875 C 127.628906 -105.992188 130.585938 -106.703125 133.671875 -106.796875 C 139.203125 -106.960938 142.035156 -104.894531 142.171875 -100.59375 C 142.265625 -97.3125 140.429688 -93.359375 136.671875 -88.734375 C 132.128906 -83.066406 127.195312 -76.765625 121.875 -69.828125 C 116.550781 -62.898438 111.476562 -55.875 106.65625 -48.75 C 101.84375 -41.632812 97.9375 -35.054688 94.9375 -29.015625 C 91.945312 -22.972656 90.503906 -18.113281 90.609375 -14.4375 C 90.671875 -12.382812 91.28125 -10.914062 92.4375 -10.03125 C 93.601562 -9.144531 94.59375 -8.710938 95.40625 -8.734375 C 98.488281 -8.828125 101.882812 -10.160156 105.59375 -12.734375 C 109.3125 -15.304688 112.910156 -18.335938 116.390625 -21.828125 C 119.878906 -25.316406 122.957031 -28.640625 125.625 -31.796875 C 128.300781 -34.953125 130.035156 -37.050781 130.828125 -38.09375 C 131.640625 -38.113281 132.066406 -37.507812 132.109375 -36.28125 C 132.160156 -34.4375 131.796875 -32.992188 131.015625 -31.953125 C 128.234375 -28.796875 124.554688 -24.890625 119.984375 -20.234375 C 115.410156 -15.585938 110.507812 -11.488281 105.28125 -7.9375 C 100.0625 -4.394531 94.988281 -2.550781 90.0625 -2.40625 Z M 90.0625 -2.40625 "/></g></g></g><g fill="#ffffff" fill-opacity="1"><g transform="translate(898.694746, 274.061951)"><g><path d="M 9.859375 0.3125 C 4.316406 0.476562 0.328125 -0.882812 -2.109375 -3.78125 C -4.554688 -6.675781 -5.847656 -10.378906 -5.984375 -14.890625 C -6.160156 -20.828125 -4.554688 -27.285156 -1.171875 -34.265625 C 2.203125 -41.242188 6.445312 -48.242188 11.5625 -55.265625 C 16.675781 -62.285156 21.910156 -68.898438 27.265625 -75.109375 C 32.617188 -81.328125 37.285156 -86.441406 41.265625 -90.453125 C 45.035156 -94.460938 48.941406 -97.453125 52.984375 -99.421875 C 57.023438 -101.390625 60.519531 -102.773438 63.46875 -103.578125 C 66.414062 -104.390625 67.890625 -104.796875 67.890625 -104.796875 C 63.535156 -99.535156 57.609375 -92.078125 50.109375 -82.421875 C 42.609375 -72.765625 35.226562 -62.492188 27.96875 -51.609375 C 27.375 -50.765625 26 -48.671875 23.84375 -45.328125 C 21.6875 -41.984375 19.289062 -38.113281 16.65625 -33.71875 C 14.03125 -29.332031 11.804688 -25.0625 9.984375 -20.90625 C 8.160156 -16.757812 7.285156 -13.457031 7.359375 -11 C 7.472656 -7.101562 9.582031 -5.21875 13.6875 -5.34375 C 16.75 -5.4375 20.039062 -6.660156 23.5625 -9.015625 C 27.082031 -11.378906 30.632812 -14.253906 34.21875 -17.640625 C 37.8125 -21.035156 41.046875 -24.363281 43.921875 -27.625 C 46.804688 -30.894531 49.03125 -33.578125 50.59375 -35.671875 C 51.414062 -35.691406 51.847656 -35.085938 51.890625 -33.859375 C 51.941406 -32.015625 51.570312 -30.570312 50.78125 -29.53125 C 43.269531 -20.28125 36.460938 -13.050781 30.359375 -7.84375 C 24.265625 -2.632812 17.429688 0.0820312 9.859375 0.3125 Z M 88.359375 -119.890625 C 86.515625 -119.828125 83.15625 -120.695312 78.28125 -122.5 C 73.414062 -124.300781 68.226562 -126.453125 62.71875 -128.953125 C 57.207031 -131.453125 52.414062 -133.867188 48.34375 -136.203125 C 44.269531 -138.546875 42.21875 -140.332031 42.1875 -141.5625 C 42.144531 -142.789062 42.773438 -143.988281 44.078125 -145.15625 C 45.378906 -146.332031 46.535156 -146.929688 47.546875 -146.953125 C 48.367188 -146.984375 50.289062 -146.117188 53.3125 -144.359375 C 56.34375 -142.597656 59.894531 -140.445312 63.96875 -137.90625 C 68.050781 -135.363281 72.023438 -132.816406 75.890625 -130.265625 C 79.753906 -127.710938 83 -125.503906 85.625 -123.640625 C 88.25 -121.773438 89.5625 -120.738281 89.5625 -120.53125 C 89.570312 -120.125 89.171875 -119.910156 88.359375 -119.890625 Z M 88.359375 -119.890625 "/></g></g></g><g fill="#ffffff" fill-opacity="1"><g transform="translate(950.332174, 272.500681)"><g><path d="M 48.578125 -1.15625 C 44.273438 -1.019531 41.164062 -2.101562 39.25 -4.40625 C 37.332031 -6.71875 36.316406 -9.71875 36.203125 -13.40625 C 36.035156 -18.9375 37.789062 -25.289062 41.46875 -32.46875 C 45.15625 -39.65625 50.003906 -47.238281 56.015625 -55.21875 C 62.023438 -63.195312 68.347656 -71.078125 74.984375 -78.859375 C 81.617188 -86.640625 87.914062 -93.804688 93.875 -100.359375 C 90.800781 -100.265625 87.492188 -99.34375 83.953125 -97.59375 C 80.421875 -95.851562 76.847656 -93.796875 73.234375 -91.421875 C 67.804688 -87.578125 61.90625 -82.476562 55.53125 -76.125 C 49.164062 -69.78125 42.804688 -63.023438 36.453125 -55.859375 C 30.109375 -48.703125 24.066406 -41.644531 18.328125 -34.6875 C 13.785156 -29.019531 10.1875 -24.300781 7.53125 -20.53125 C 4.875 -16.769531 2.617188 -13.367188 0.765625 -10.328125 C -1.085938 -7.296875 -3.09375 -3.90625 -5.25 -0.15625 C -8.519531 -0.0507812 -10.210938 -1.945312 -10.328125 -5.84375 C -10.453125 -9.9375 -9.316406 -14.890625 -6.921875 -20.703125 C -4.535156 -26.515625 -2.472656 -31.09375 -0.734375 -34.4375 C 4.316406 -43.613281 10.125 -53.273438 16.6875 -63.421875 C 23.257812 -73.566406 29.40625 -82.515625 35.125 -90.265625 C 38.070312 -94.460938 41.253906 -97.585938 44.671875 -99.640625 C 48.085938 -101.691406 51.015625 -103.007812 53.453125 -103.59375 C 55.898438 -104.1875 57.125 -104.484375 57.125 -104.484375 C 55.957031 -102.597656 53.515625 -98.625 49.796875 -92.5625 C 46.085938 -86.507812 41.789062 -79.410156 36.90625 -71.265625 C 32.03125 -63.117188 27.050781 -54.863281 21.96875 -46.5 C 30.082031 -56.382812 38.816406 -66.03125 48.171875 -75.4375 C 57.523438 -84.84375 66.523438 -92.550781 75.171875 -98.5625 C 77.785156 -100.488281 80.503906 -102.109375 83.328125 -103.421875 C 86.148438 -104.734375 89.097656 -105.4375 92.171875 -105.53125 C 97.703125 -105.695312 100.535156 -103.628906 100.671875 -99.328125 C 100.765625 -96.046875 98.929688 -92.097656 95.171875 -87.484375 C 90.640625 -81.804688 85.707031 -75.5 80.375 -68.5625 C 75.050781 -61.632812 69.984375 -54.613281 65.171875 -47.5 C 60.359375 -40.382812 56.453125 -33.804688 53.453125 -27.765625 C 50.460938 -21.722656 49.019531 -16.863281 49.125 -13.1875 C 49.1875 -11.132812 49.796875 -9.660156 50.953125 -8.765625 C 52.109375 -7.878906 53.097656 -7.453125 53.921875 -7.484375 C 56.992188 -7.578125 60.382812 -8.910156 64.09375 -11.484375 C 67.8125 -14.054688 71.414062 -17.082031 74.90625 -20.5625 C 78.394531 -24.050781 81.472656 -27.375 84.140625 -30.53125 C 86.804688 -33.6875 88.535156 -35.789062 89.328125 -36.84375 C 90.148438 -36.863281 90.582031 -36.257812 90.625 -35.03125 C 90.675781 -33.1875 90.304688 -31.742188 89.515625 -30.703125 C 86.734375 -27.535156 83.054688 -23.628906 78.484375 -18.984375 C 73.910156 -14.335938 69.007812 -10.238281 63.78125 -6.6875 C 58.5625 -3.144531 53.492188 -1.300781 48.578125 -1.15625 Z M 48.578125 -1.15625 "/></g></g></g><g fill="#ffffff" fill-opacity="1"><g transform="translate(1040.697709, 269.768458)"><g><path d="M 46.453125 -0.171875 C 42.753906 -0.0546875 40.0625 -0.898438 38.375 -2.703125 C 36.6875 -4.503906 35.796875 -6.835938 35.703125 -9.703125 C 35.628906 -12.160156 36.140625 -15.65625 37.234375 -20.1875 C 39.671875 -27.65625 43.332031 -35.304688 48.21875 -43.140625 C 53.101562 -50.984375 58.460938 -58.53125 64.296875 -65.78125 C 70.140625 -73.039062 75.734375 -79.671875 81.078125 -85.671875 C 86.429688 -91.671875 90.695312 -96.566406 93.875 -100.359375 C 90.800781 -100.265625 87.492188 -99.34375 83.953125 -97.59375 C 80.421875 -95.851562 76.847656 -93.796875 73.234375 -91.421875 C 64.597656 -85.015625 55.953125 -77.472656 47.296875 -68.796875 C 38.640625 -60.128906 30.601562 -51.273438 23.1875 -42.234375 C 15.769531 -33.191406 9.503906 -24.898438 4.390625 -17.359375 C -0.710938 -9.828125 -3.921875 -3.988281 -5.234375 0.15625 C -8.503906 0.257812 -10.203125 -1.738281 -10.328125 -5.84375 C -10.429688 -9.320312 -9.535156 -13.703125 -7.640625 -18.984375 C -5.753906 -24.273438 -3.359375 -29.632812 -0.453125 -35.0625 C 6.160156 -46.9375 14.332031 -59.84375 24.0625 -73.78125 C 33.800781 -87.71875 43.921875 -100.796875 54.421875 -113.015625 C 63.734375 -123.960938 73.894531 -133.910156 84.90625 -142.859375 C 95.914062 -151.804688 107.507812 -158.203125 119.6875 -162.046875 C 121.519531 -162.710938 123.660156 -163.285156 126.109375 -163.765625 C 128.554688 -164.253906 131.113281 -164.539062 133.78125 -164.625 C 138.695312 -164.769531 142.921875 -164.179688 146.453125 -162.859375 C 148.097656 -162.078125 149.757812 -161.050781 151.4375 -159.78125 C 153.125 -158.507812 154.3125 -156.648438 155 -154.203125 C 152.6875 -155.984375 150.082031 -157.285156 147.1875 -158.109375 C 144.289062 -158.941406 140.796875 -159.300781 136.703125 -159.1875 C 128.703125 -158.9375 120.625 -156.378906 112.46875 -151.515625 C 104.3125 -146.660156 96.59375 -140.84375 89.3125 -134.0625 C 82.039062 -127.28125 75.679688 -120.578125 70.234375 -113.953125 C 64.796875 -107.328125 60.59375 -102.125 57.625 -98.34375 C 49.9375 -88.269531 43.195312 -78.882812 37.40625 -70.1875 C 31.613281 -61.5 26.757812 -54.128906 22.84375 -48.078125 C 30.769531 -57.335938 39.460938 -66.671875 48.921875 -76.078125 C 58.378906 -85.484375 67.128906 -92.976562 75.171875 -98.5625 C 77.785156 -100.488281 80.503906 -102.109375 83.328125 -103.421875 C 86.148438 -104.734375 89.097656 -105.4375 92.171875 -105.53125 C 97.703125 -105.695312 100.535156 -103.628906 100.671875 -99.328125 C 100.765625 -96.046875 98.929688 -92.097656 95.171875 -87.484375 C 88.242188 -79.066406 81.242188 -69.773438 74.171875 -59.609375 C 67.097656 -49.453125 61.144531 -39.378906 56.3125 -29.390625 C 55.550781 -27.921875 54.257812 -25.0625 52.4375 -20.8125 C 50.625 -16.5625 49.757812 -13 49.84375 -10.125 C 49.914062 -7.664062 51.070312 -6.46875 53.3125 -6.53125 C 58.03125 -6.675781 63.679688 -9.867188 70.265625 -16.109375 C 76.847656 -22.359375 83.203125 -29.269531 89.328125 -36.84375 C 90.148438 -36.863281 90.582031 -36.257812 90.625 -35.03125 C 90.675781 -33.1875 90.304688 -31.742188 89.515625 -30.703125 C 86.734375 -27.535156 83.210938 -23.582031 78.953125 -18.84375 C 74.691406 -14.101562 69.84375 -9.851562 64.40625 -6.09375 C 58.976562 -2.34375 52.992188 -0.367188 46.453125 -0.171875 Z M 46.453125 -0.171875 "/></g></g></g><g fill="#ffffff" fill-opacity="1"><g transform="translate(21.457186, 452.685795)"><g><path d="M 46.453125 -0.171875 C 42.753906 -0.0546875 40.0625 -0.898438 38.375 -2.703125 C 36.6875 -4.503906 35.796875 -6.835938 35.703125 -9.703125 C 35.628906 -12.160156 36.140625 -15.65625 37.234375 -20.1875 C 39.671875 -27.65625 43.332031 -35.304688 48.21875 -43.140625 C 53.101562 -50.984375 58.460938 -58.53125 64.296875 -65.78125 C 70.140625 -73.039062 75.734375 -79.671875 81.078125 -85.671875 C 86.429688 -91.671875 90.695312 -96.566406 93.875 -100.359375 C 90.800781 -100.265625 87.492188 -99.34375 83.953125 -97.59375 C 80.421875 -95.851562 76.847656 -93.796875 73.234375 -91.421875 C 64.597656 -85.015625 55.953125 -77.472656 47.296875 -68.796875 C 38.640625 -60.128906 30.601562 -51.273438 23.1875 -42.234375 C 15.769531 -33.191406 9.503906 -24.898438 4.390625 -17.359375 C -0.710938 -9.828125 -3.921875 -3.988281 -5.234375 0.15625 C -8.503906 0.257812 -10.203125 -1.738281 -10.328125 -5.84375 C -10.429688 -9.320312 -9.535156 -13.703125 -7.640625 -18.984375 C -5.753906 -24.273438 -3.359375 -29.632812 -0.453125 -35.0625 C 6.160156 -46.9375 14.332031 -59.84375 24.0625 -73.78125 C 33.800781 -87.71875 43.921875 -100.796875 54.421875 -113.015625 C 63.734375 -123.960938 73.894531 -133.910156 84.90625 -142.859375 C 95.914062 -151.804688 107.507812 -158.203125 119.6875 -162.046875 C 121.519531 -162.710938 123.660156 -163.285156 126.109375 -163.765625 C 128.554688 -164.253906 131.113281 -164.539062 133.78125 -164.625 C 138.695312 -164.769531 142.921875 -164.179688 146.453125 -162.859375 C 148.097656 -162.078125 149.757812 -161.050781 151.4375 -159.78125 C 153.125 -158.507812 154.3125 -156.648438 155 -154.203125 C 152.6875 -155.984375 150.082031 -157.285156 147.1875 -158.109375 C 144.289062 -158.941406 140.796875 -159.300781 136.703125 -159.1875 C 128.703125 -158.9375 120.625 -156.378906 112.46875 -151.515625 C 104.3125 -146.660156 96.59375 -140.84375 89.3125 -134.0625 C 82.039062 -127.28125 75.679688 -120.578125 70.234375 -113.953125 C 64.796875 -107.328125 60.59375 -102.125 57.625 -98.34375 C 49.9375 -88.269531 43.195312 -78.882812 37.40625 -70.1875 C 31.613281 -61.5 26.757812 -54.128906 22.84375 -48.078125 C 30.769531 -57.335938 39.460938 -66.671875 48.921875 -76.078125 C 58.378906 -85.484375 67.128906 -92.976562 75.171875 -98.5625 C 77.785156 -100.488281 80.503906 -102.109375 83.328125 -103.421875 C 86.148438 -104.734375 89.097656 -105.4375 92.171875 -105.53125 C 97.703125 -105.695312 100.535156 -103.628906 100.671875 -99.328125 C 100.765625 -96.046875 98.929688 -92.097656 95.171875 -87.484375 C 88.242188 -79.066406 81.242188 -69.773438 74.171875 -59.609375 C 67.097656 -49.453125 61.144531 -39.378906 56.3125 -29.390625 C 55.550781 -27.921875 54.257812 -25.0625 52.4375 -20.8125 C 50.625 -16.5625 49.757812 -13 49.84375 -10.125 C 49.914062 -7.664062 51.070312 -6.46875 53.3125 -6.53125 C 58.03125 -6.675781 63.679688 -9.867188 70.265625 -16.109375 C 76.847656 -22.359375 83.203125 -29.269531 89.328125 -36.84375 C 90.148438 -36.863281 90.582031 -36.257812 90.625 -35.03125 C 90.675781 -33.1875 90.304688 -31.742188 89.515625 -30.703125 C 86.734375 -27.535156 83.210938 -23.582031 78.953125 -18.84375 C 74.691406 -14.101562 69.84375 -9.851562 64.40625 -6.09375 C 58.976562 -2.34375 52.992188 -0.367188 46.453125 -0.171875 Z M 46.453125 -0.171875 "/></g></g></g><g fill="#ffffff" fill-opacity="1"><g transform="translate(111.822683, 449.953573)"><g><path d="M 23.421875 1.453125 C 13.992188 1.734375 7.269531 -0.113281 3.25 -4.09375 C -0.757812 -8.070312 -2.867188 -13.546875 -3.078125 -20.515625 C -3.273438 -27.273438 -1.59375 -34.453125 1.96875 -42.046875 C 5.53125 -49.640625 10.078125 -56.90625 15.609375 -63.84375 C 18.960938 -68.050781 23.128906 -72.488281 28.109375 -77.15625 C 33.097656 -81.820312 38.503906 -86.238281 44.328125 -90.40625 C 50.148438 -94.570312 55.941406 -98.023438 61.703125 -100.765625 C 67.472656 -103.503906 72.609375 -104.941406 77.109375 -105.078125 C 79.578125 -105.148438 81.847656 -104.65625 83.921875 -103.59375 C 86.003906 -102.53125 87.101562 -100.148438 87.21875 -96.453125 C 87.375 -91.328125 85.0625 -86.390625 80.28125 -81.640625 C 75.507812 -76.890625 70.109375 -72.472656 64.078125 -68.390625 C 57.242188 -63.671875 50.082031 -59.660156 42.59375 -56.359375 C 35.101562 -53.066406 28.613281 -50.515625 23.125 -48.703125 C 20.207031 -43.691406 17.90625 -38.59375 16.21875 -33.40625 C 14.53125 -28.226562 13.765625 -23.175781 13.921875 -18.25 C 14.078125 -12.9375 15.460938 -9.34375 18.078125 -7.46875 C 20.691406 -5.601562 23.742188 -4.722656 27.234375 -4.828125 C 33.585938 -5.015625 39.328125 -6.675781 44.453125 -9.8125 C 49.585938 -12.945312 54.335938 -16.9375 58.703125 -21.78125 C 63.078125 -26.625 67.242188 -31.460938 71.203125 -36.296875 C 72.023438 -36.316406 72.457031 -35.710938 72.5 -34.484375 C 72.550781 -32.640625 72.179688 -31.195312 71.390625 -30.15625 C 67.429688 -25.3125 63.113281 -20.460938 58.4375 -15.609375 C 53.757812 -10.753906 48.597656 -6.753906 42.953125 -3.609375 C 37.304688 -0.460938 30.796875 1.222656 23.421875 1.453125 Z M 26.703125 -53.109375 C 31.972656 -55.109375 38.195312 -57.851562 45.375 -61.34375 C 52.550781 -64.84375 58.84375 -68.625 64.25 -72.6875 C 65.457031 -73.550781 67.554688 -75.3125 70.546875 -77.96875 C 73.546875 -80.625 76.328125 -83.578125 78.890625 -86.828125 C 81.460938 -90.078125 82.707031 -92.929688 82.625 -95.390625 C 82.53125 -98.671875 80.847656 -100.265625 77.578125 -100.171875 C 74.097656 -100.066406 70.195312 -98.410156 65.875 -95.203125 C 61.5625 -91.992188 58.109375 -89.222656 55.515625 -86.890625 C 50.734375 -82.234375 45.757812 -77.054688 40.59375 -71.359375 C 35.4375 -65.671875 30.804688 -59.585938 26.703125 -53.109375 Z M 14.375 38.015625 C 12.320312 38.078125 10.609375 37.460938 9.234375 36.171875 C 7.867188 34.878906 7.15625 33.210938 7.09375 31.171875 C 7 28.296875 8.046875 25.75 10.234375 23.53125 C 12.429688 21.3125 14.863281 20.160156 17.53125 20.078125 C 19.78125 20.015625 21.539062 20.628906 22.8125 21.921875 C 24.082031 23.222656 24.75 24.894531 24.8125 26.9375 C 24.882812 29.601562 23.828125 32.097656 21.640625 34.421875 C 19.453125 36.742188 17.03125 37.941406 14.375 38.015625 Z M 14.375 38.015625 "/></g></g></g><g fill="#ffffff" fill-opacity="1"><g transform="translate(184.053603, 447.769654)"><g><path d="M 48.578125 -1.15625 C 44.273438 -1.019531 41.164062 -2.101562 39.25 -4.40625 C 37.332031 -6.71875 36.316406 -9.71875 36.203125 -13.40625 C 36.035156 -18.9375 37.789062 -25.289062 41.46875 -32.46875 C 45.15625 -39.65625 50.003906 -47.238281 56.015625 -55.21875 C 62.023438 -63.195312 68.347656 -71.078125 74.984375 -78.859375 C 81.617188 -86.640625 87.914062 -93.804688 93.875 -100.359375 C 90.800781 -100.265625 87.492188 -99.34375 83.953125 -97.59375 C 80.421875 -95.851562 76.847656 -93.796875 73.234375 -91.421875 C 67.804688 -87.578125 61.90625 -82.476562 55.53125 -76.125 C 49.164062 -69.78125 42.804688 -63.023438 36.453125 -55.859375 C 30.109375 -48.703125 24.066406 -41.644531 18.328125 -34.6875 C 13.785156 -29.019531 10.1875 -24.300781 7.53125 -20.53125 C 4.875 -16.769531 2.617188 -13.367188 0.765625 -10.328125 C -1.085938 -7.296875 -3.09375 -3.90625 -5.25 -0.15625 C -8.519531 -0.0507812 -10.210938 -1.945312 -10.328125 -5.84375 C -10.453125 -9.9375 -9.316406 -14.890625 -6.921875 -20.703125 C -4.535156 -26.515625 -2.472656 -31.09375 -0.734375 -34.4375 C 4.316406 -43.613281 10.125 -53.273438 16.6875 -63.421875 C 23.257812 -73.566406 29.40625 -82.515625 35.125 -90.265625 C 38.070312 -94.460938 41.253906 -97.585938 44.671875 -99.640625 C 48.085938 -101.691406 51.015625 -103.007812 53.453125 -103.59375 C 55.898438 -104.1875 57.125 -104.484375 57.125 -104.484375 C 55.957031 -102.597656 53.515625 -98.625 49.796875 -92.5625 C 46.085938 -86.507812 41.789062 -79.410156 36.90625 -71.265625 C 32.03125 -63.117188 27.050781 -54.863281 21.96875 -46.5 C 30.082031 -56.382812 38.816406 -66.03125 48.171875 -75.4375 C 57.523438 -84.84375 66.523438 -92.550781 75.171875 -98.5625 C 77.785156 -100.488281 80.503906 -102.109375 83.328125 -103.421875 C 86.148438 -104.734375 89.097656 -105.4375 92.171875 -105.53125 C 97.703125 -105.695312 100.535156 -103.628906 100.671875 -99.328125 C 100.765625 -96.046875 98.929688 -92.097656 95.171875 -87.484375 C 90.640625 -81.804688 85.707031 -75.5 80.375 -68.5625 C 75.050781 -61.632812 69.984375 -54.613281 65.171875 -47.5 C 60.359375 -40.382812 56.453125 -33.804688 53.453125 -27.765625 C 50.460938 -21.722656 49.019531 -16.863281 49.125 -13.1875 C 49.1875 -11.132812 49.796875 -9.660156 50.953125 -8.765625 C 52.109375 -7.878906 53.097656 -7.453125 53.921875 -7.484375 C 56.992188 -7.578125 60.382812 -8.910156 64.09375 -11.484375 C 67.8125 -14.054688 71.414062 -17.082031 74.90625 -20.5625 C 78.394531 -24.050781 81.472656 -27.375 84.140625 -30.53125 C 86.804688 -33.6875 88.535156 -35.789062 89.328125 -36.84375 C 90.148438 -36.863281 90.582031 -36.257812 90.625 -35.03125 C 90.675781 -33.1875 90.304688 -31.742188 89.515625 -30.703125 C 86.734375 -27.535156 83.054688 -23.628906 78.484375 -18.984375 C 73.910156 -14.335938 69.007812 -10.238281 63.78125 -6.6875 C 58.5625 -3.144531 53.492188 -1.300781 48.578125 -1.15625 Z M 48.578125 -1.15625 "/></g></g></g><g fill="#ffffff" fill-opacity="1"><g transform="translate(274.4191, 445.037432)"><g/></g></g><g fill="#ffffff" fill-opacity="1"><g transform="translate(323.597612, 443.550508)"><g><path d="M -37.671875 76.8125 C -43.828125 77 -48.039062 76.664062 -50.3125 75.8125 C -52.59375 74.957031 -53.742188 74.222656 -53.765625 73.609375 C -53.785156 72.785156 -53.078125 72.351562 -51.640625 72.3125 C -50.617188 72.28125 -49.597656 72.300781 -48.578125 72.375 C -47.554688 72.445312 -46.632812 72.472656 -45.8125 72.453125 C -38.4375 72.222656 -31.128906 69.742188 -23.890625 65.015625 C -16.648438 60.285156 -9.65625 54.078125 -2.90625 46.390625 C 3.84375 38.703125 10.253906 30.253906 16.328125 21.046875 C 22.398438 11.835938 27.867188 2.742188 32.734375 -6.234375 C 34.472656 -9.554688 36.695312 -13.875 39.40625 -19.1875 C 42.125 -24.5 45.128906 -30.285156 48.421875 -36.546875 C 44.671875 -31.910156 41.207031 -27.796875 38.03125 -24.203125 C 34.863281 -20.617188 32.476562 -17.992188 30.875 -16.328125 C 26.488281 -12.085938 22.289062 -8.421875 18.28125 -5.328125 C 14.28125 -2.234375 10.035156 -0.410156 5.546875 0.140625 C -2.023438 0.773438 -5.945312 -3.414062 -6.21875 -12.4375 C -6.375 -17.34375 -5.117188 -23.269531 -2.453125 -30.21875 C 0.210938 -37.175781 4.300781 -44.53125 9.8125 -52.28125 C 13.75 -57.53125 18.597656 -63.164062 24.359375 -69.1875 C 30.128906 -75.207031 36.46875 -80.984375 43.375 -86.515625 C 50.28125 -92.054688 57.367188 -96.628906 64.640625 -100.234375 C 71.921875 -103.835938 79.039062 -105.742188 86 -105.953125 C 89.070312 -106.046875 91.238281 -105.648438 92.5 -104.765625 C 93.769531 -103.878906 94.625 -102.9375 95.0625 -101.9375 C 95.289062 -101.113281 95.3125 -100.394531 95.125 -99.78125 C 100.945312 -103.851562 106.421875 -105.96875 111.546875 -106.125 C 112.972656 -106.164062 113.90625 -105.988281 114.34375 -105.59375 C 105.882812 -100 98.453125 -92.953125 92.046875 -84.453125 C 85.640625 -75.960938 79.722656 -66.503906 74.296875 -56.078125 C 68.867188 -45.660156 63.503906 -34.9375 58.203125 -23.90625 C 52.898438 -12.882812 47.28125 -1.953125 41.34375 8.890625 C 35.414062 19.742188 28.691406 29.796875 21.171875 39.046875 C 12.285156 49.972656 2.613281 58.925781 -7.84375 65.90625 C -18.300781 72.894531 -28.242188 76.53125 -37.671875 76.8125 Z M 12.328125 -9.59375 C 13.765625 -9.644531 15.6875 -10.375 18.09375 -11.78125 C 20.507812 -13.1875 23.617188 -15.582031 27.421875 -18.96875 C 33.804688 -24.90625 40.253906 -32.125 46.765625 -40.625 C 53.273438 -49.125 59.582031 -57.570312 65.6875 -65.96875 C 70.195312 -72.664062 74.875 -79.0625 79.71875 -85.15625 C 84.5625 -91.257812 89.59375 -96.03125 94.8125 -99.46875 C 94.40625 -99.457031 94.203125 -99.550781 94.203125 -99.75 C 93.367188 -100.144531 91.722656 -100.300781 89.265625 -100.21875 C 81.898438 -100 73.25 -96.203125 63.3125 -88.828125 C 53.382812 -81.453125 43.671875 -71.976562 34.171875 -60.40625 C 27.429688 -52.40625 21.921875 -44.597656 17.640625 -36.984375 C 13.367188 -29.367188 10.59375 -23.078125 9.3125 -18.109375 C 8.9375 -16.472656 8.769531 -15.039062 8.8125 -13.8125 C 8.894531 -10.9375 10.066406 -9.53125 12.328125 -9.59375 Z M 12.328125 -9.59375 "/></g></g></g><g fill="#ffffff" fill-opacity="1"><g transform="translate(408.430537, 440.985565)"><g><path d="M 5.546875 0.140625 C -2.035156 0.367188 -5.957031 -3.820312 -6.21875 -12.4375 C -6.375 -17.34375 -5.117188 -23.269531 -2.453125 -30.21875 C 0.210938 -37.175781 4.300781 -44.53125 9.8125 -52.28125 C 13.75 -57.53125 18.597656 -63.164062 24.359375 -69.1875 C 30.128906 -75.207031 36.46875 -80.984375 43.375 -86.515625 C 50.28125 -92.054688 57.367188 -96.628906 64.640625 -100.234375 C 71.921875 -103.835938 79.039062 -105.742188 86 -105.953125 C 89.070312 -106.046875 91.238281 -105.648438 92.5 -104.765625 C 93.769531 -103.878906 94.625 -102.9375 95.0625 -101.9375 C 95.488281 -101.125 95.550781 -100.507812 95.25 -100.09375 C 94.957031 -99.675781 94.609375 -99.5625 94.203125 -99.75 C 93.367188 -100.144531 91.722656 -100.300781 89.265625 -100.21875 C 81.898438 -100 73.25 -96.203125 63.3125 -88.828125 C 53.382812 -81.453125 43.671875 -71.976562 34.171875 -60.40625 C 27.429688 -52.40625 21.921875 -44.597656 17.640625 -36.984375 C 13.367188 -29.367188 10.59375 -23.078125 9.3125 -18.109375 C 8.9375 -16.472656 8.769531 -15.039062 8.8125 -13.8125 C 8.894531 -10.9375 10.066406 -9.53125 12.328125 -9.59375 C 13.765625 -9.644531 15.6875 -10.375 18.09375 -11.78125 C 20.507812 -13.1875 23.617188 -15.582031 27.421875 -18.96875 C 33.398438 -24.488281 39.300781 -30.925781 45.125 -38.28125 C 50.957031 -45.632812 56.734375 -53.140625 62.453125 -60.796875 C 68.171875 -68.460938 73.75 -75.550781 79.1875 -82.0625 C 84.632812 -88.582031 89.867188 -93.5625 94.890625 -97 C 101.328125 -101.5 105.816406 -104.09375 108.359375 -104.78125 C 110.898438 -105.476562 112.984375 -105.957031 114.609375 -106.21875 C 113.628906 -104.957031 111.460938 -102.019531 108.109375 -97.40625 C 104.765625 -92.789062 101.21875 -87.914062 97.46875 -82.78125 C 93.726562 -77.644531 90.679688 -73.398438 88.328125 -70.046875 C 84.804688 -64.597656 81.035156 -58.738281 77.015625 -52.46875 C 73.003906 -46.195312 69.382812 -40.289062 66.15625 -34.75 C 62.9375 -29.21875 60.769531 -24.695312 59.65625 -21.1875 C 58.738281 -17.675781 58.300781 -15.101562 58.34375 -13.46875 C 58.445312 -10.1875 59.832031 -8.582031 62.5 -8.65625 C 64.34375 -8.71875 66.519531 -9.554688 69.03125 -11.171875 C 71.550781 -12.785156 74.113281 -14.65625 76.71875 -16.78125 C 80.113281 -19.738281 83.296875 -22.851562 86.265625 -26.125 C 89.242188 -29.40625 92.316406 -33.039062 95.484375 -37.03125 C 96.296875 -37.050781 96.722656 -36.445312 96.765625 -35.21875 C 96.816406 -33.375 96.453125 -31.929688 95.671875 -30.890625 C 93.097656 -27.734375 89.972656 -24.253906 86.296875 -20.453125 C 82.617188 -16.648438 78.976562 -13.257812 75.375 -10.28125 C 72.769531 -7.945312 69.75 -5.90625 66.3125 -4.15625 C 62.882812 -2.40625 59.53125 -1.484375 56.25 -1.390625 C 51.550781 -1.242188 48.242188 -2.269531 46.328125 -4.46875 C 44.421875 -6.664062 43.410156 -9.507812 43.296875 -13 C 43.179688 -17.082031 43.972656 -21.5625 45.671875 -26.4375 C 47.367188 -31.3125 49.269531 -35.941406 51.375 -40.328125 C 48.820312 -36.960938 45.5625 -32.910156 41.59375 -28.171875 C 37.632812 -23.429688 34.0625 -19.484375 30.875 -16.328125 C 26.488281 -12.085938 22.296875 -8.316406 18.296875 -5.015625 C 14.304688 -1.710938 10.054688 0.00390625 5.546875 0.140625 Z M 10.078125 38.15625 C 8.023438 38.21875 6.3125 37.597656 4.9375 36.296875 C 3.570312 35.003906 2.859375 33.335938 2.796875 31.296875 C 2.703125 28.421875 3.75 25.875 5.9375 23.65625 C 8.132812 21.4375 10.566406 20.289062 13.234375 20.21875 C 15.492188 20.144531 17.253906 20.753906 18.515625 22.046875 C 19.785156 23.347656 20.453125 25.019531 20.515625 27.0625 C 20.585938 29.726562 19.53125 32.222656 17.34375 34.546875 C 15.164062 36.867188 12.742188 38.070312 10.078125 38.15625 Z M 103.453125 -119.734375 C 98.941406 -119.597656 94.898438 -120.804688 91.328125 -123.359375 C 87.765625 -125.910156 85.90625 -129.75 85.75 -134.875 C 85.738281 -135.488281 85.722656 -136.101562 85.703125 -136.71875 C 85.679688 -137.34375 85.765625 -137.960938 85.953125 -138.578125 C 86.128906 -139.398438 86.304688 -140.222656 86.484375 -141.046875 C 86.671875 -141.878906 86.851562 -142.707031 87.03125 -143.53125 C 87.96875 -146.4375 89.359375 -147.914062 91.203125 -147.96875 C 92.640625 -148.007812 93.300781 -146.488281 93.1875 -143.40625 C 93.195312 -142.988281 93.15625 -142.578125 93.0625 -142.171875 C 92.976562 -141.765625 92.941406 -141.351562 92.953125 -140.9375 C 93.066406 -137.25 94.585938 -134.375 97.515625 -132.3125 C 100.453125 -130.25 104.175781 -129.285156 108.6875 -129.421875 C 112.175781 -129.523438 116.046875 -130.460938 120.296875 -132.234375 C 124.546875 -134.003906 128.523438 -136.273438 132.234375 -139.046875 C 135.953125 -141.828125 138.6875 -144.882812 140.4375 -148.21875 C 141.019531 -149.269531 142.128906 -149.820312 143.765625 -149.875 C 145.203125 -149.914062 145.9375 -149.320312 145.96875 -148.09375 C 145.988281 -147.476562 145.707031 -146.644531 145.125 -145.59375 C 143.175781 -142.050781 140.257812 -138.320312 136.375 -134.40625 C 132.5 -130.488281 127.785156 -127.113281 122.234375 -124.28125 C 116.679688 -121.457031 110.421875 -119.941406 103.453125 -119.734375 Z M 103.453125 -119.734375 "/></g></g></g><g fill="#ffffff" fill-opacity="1"><g transform="translate(504.021254, 438.095357)"><g><path d="M -82.890625 76.96875 C -88.421875 77.132812 -93.050781 76.648438 -96.78125 75.515625 C -98.4375 74.753906 -100.15625 73.679688 -101.9375 72.296875 C -103.726562 70.910156 -104.96875 69.101562 -105.65625 66.875 C -103.351562 68.65625 -100.75 69.960938 -97.84375 70.796875 C -94.9375 71.628906 -91.441406 71.878906 -87.359375 71.546875 C -75.472656 71.191406 -64.457031 67.578125 -54.3125 60.703125 C -44.164062 53.835938 -34.742188 44.988281 -26.046875 34.15625 C -17.347656 23.332031 -9.285156 11.863281 -1.859375 -0.25 C 10.078125 -19.28125 21.390625 -38.539062 32.078125 -58.03125 C 42.773438 -77.53125 54 -96.382812 65.75 -114.59375 C 68.632812 -114.46875 70.132812 -112.457031 70.25 -108.5625 C 70.40625 -103.4375 68.078125 -95.625 63.265625 -85.125 C 58.453125 -74.625 51.753906 -62.269531 43.171875 -48.0625 C 42.378906 -47.019531 41.691406 -45.875 41.109375 -44.625 C 40.535156 -43.375 39.851562 -42.125 39.0625 -40.875 C 44.988281 -48.238281 51.171875 -55.753906 57.609375 -63.421875 C 64.046875 -71.097656 70.445312 -78.160156 76.8125 -84.609375 C 83.175781 -91.054688 89.375 -96.316406 95.40625 -100.390625 C 101.4375 -104.472656 107.015625 -106.59375 112.140625 -106.75 C 118.691406 -106.945312 122.085938 -103.050781 122.328125 -95.0625 C 122.484375 -90.15625 121.132812 -83.960938 118.28125 -76.484375 C 115.425781 -69.015625 110.945312 -61.085938 104.84375 -52.703125 C 101.101562 -47.453125 96.40625 -41.820312 90.75 -35.8125 C 85.09375 -29.800781 78.90625 -24.078125 72.1875 -18.640625 C 65.476562 -13.210938 58.585938 -8.75 51.515625 -5.25 C 44.441406 -1.75 37.523438 0.101562 30.765625 0.3125 C 25.234375 0.476562 21.921875 -0.445312 20.828125 -2.46875 C 20.410156 -3.070312 20.347656 -3.582031 20.640625 -4 C 20.929688 -4.425781 21.179688 -4.644531 21.390625 -4.65625 C 21.390625 -4.65625 21.898438 -4.566406 22.921875 -4.390625 C 23.953125 -4.210938 25.1875 -4.144531 26.625 -4.1875 C 31.539062 -4.332031 37.125 -6.242188 43.375 -9.921875 C 49.625 -13.609375 56.195312 -18.523438 63.09375 -24.671875 C 69.988281 -30.828125 76.5 -37.691406 82.625 -45.265625 C 89.351562 -53.253906 94.957031 -61.160156 99.4375 -68.984375 C 103.914062 -76.816406 106.800781 -83.21875 108.09375 -88.1875 C 108.445312 -89.820312 108.609375 -91.15625 108.578125 -92.1875 C 108.523438 -93.820312 108.125 -95.191406 107.375 -96.296875 C 106.625 -97.398438 105.234375 -97.71875 103.203125 -97.25 C 98.117188 -95.863281 92.078125 -92.09375 85.078125 -85.9375 C 78.085938 -79.789062 70.820312 -72.5 63.28125 -64.0625 C 55.738281 -55.625 48.554688 -47.144531 41.734375 -38.625 C 34.921875 -30.113281 28.945312 -22.710938 23.8125 -16.421875 C 16.582031 -4.710938 8.285156 7.382812 -1.078125 19.875 C -10.453125 32.363281 -20.578125 43.539062 -31.453125 53.40625 C -42.335938 63.269531 -53.867188 70.234375 -66.046875 74.296875 C -69.898438 75.847656 -75.515625 76.738281 -82.890625 76.96875 Z M -82.890625 76.96875 "/></g></g></g><g fill="#ffffff" fill-opacity="1"><g transform="translate(619.898113, 434.591793)"><g/></g></g><g fill="#ffffff" fill-opacity="1"><g transform="translate(669.076625, 433.104869)"><g><path d="M 7.71875 1 C 3 1.144531 -0.367188 0.015625 -2.390625 -2.390625 C -4.410156 -4.796875 -5.476562 -7.84375 -5.59375 -11.53125 C -5.695312 -15.207031 -5.09375 -19.164062 -3.78125 -23.40625 C -2.476562 -27.65625 -1.0625 -31.550781 0.46875 -35.09375 C 3.976562 -41.351562 7.835938 -47.671875 12.046875 -54.046875 C 16.265625 -60.421875 20.832031 -67.070312 25.75 -74 C 31.0625 -81.539062 37.171875 -89.722656 44.078125 -98.546875 C 50.992188 -107.367188 58.476562 -116.054688 66.53125 -124.609375 C 74.582031 -133.160156 83.117188 -140.75 92.140625 -147.375 C 101.171875 -154 110.457031 -158.890625 120 -162.046875 C 121.820312 -162.722656 124.007812 -163.304688 126.5625 -163.796875 C 129.113281 -164.285156 131.722656 -164.566406 134.390625 -164.640625 C 136.648438 -164.710938 138.859375 -164.625 141.015625 -164.375 C 143.171875 -164.132812 145.1875 -163.632812 147.0625 -162.875 C 148.707031 -162.09375 150.367188 -161.066406 152.046875 -159.796875 C 153.734375 -158.523438 154.820312 -156.660156 155.3125 -154.203125 C 153.207031 -155.992188 150.707031 -157.304688 147.8125 -158.140625 C 144.914062 -158.972656 141.414062 -159.328125 137.3125 -159.203125 C 129.113281 -158.953125 121.585938 -156.925781 114.734375 -153.125 C 107.878906 -149.332031 101.410156 -144.421875 95.328125 -138.390625 C 89.253906 -132.359375 83.453125 -125.828125 77.921875 -118.796875 C 72.398438 -111.765625 66.863281 -104.984375 61.3125 -98.453125 C 53.394531 -88.984375 45.988281 -79.53125 39.09375 -70.09375 C 32.207031 -60.65625 26.726562 -52.082031 22.65625 -44.375 C 26.601562 -49.613281 31.050781 -55.179688 36 -61.078125 C 40.945312 -66.972656 45.800781 -72.503906 50.5625 -77.671875 C 55.320312 -82.847656 59.300781 -86.910156 62.5 -89.859375 C 66.882812 -94.097656 71.191406 -97.5625 75.421875 -100.25 C 79.648438 -102.945312 84.007812 -104.566406 88.5 -105.109375 C 95.863281 -105.753906 99.679688 -101.566406 99.953125 -92.546875 C 100.097656 -87.835938 98.890625 -82.007812 96.328125 -75.0625 C 93.765625 -68.113281 89.628906 -60.65625 83.921875 -52.6875 C 80.191406 -47.445312 75.390625 -41.8125 69.515625 -35.78125 C 63.648438 -29.757812 57.265625 -23.976562 50.359375 -18.4375 C 43.453125 -12.90625 36.359375 -8.332031 29.078125 -4.71875 C 21.796875 -1.113281 14.675781 0.789062 7.71875 1 Z M 10.359375 -3.390625 C 18.117188 -4.242188 26.238281 -8.585938 34.71875 -16.421875 C 43.207031 -24.265625 52.101562 -33.765625 61.40625 -44.921875 C 68.34375 -53.128906 74.097656 -61.046875 78.671875 -68.671875 C 83.253906 -76.296875 86.191406 -82.488281 87.484375 -87.25 C 87.679688 -87.863281 87.765625 -88.679688 87.734375 -89.703125 C 87.679688 -91.347656 87.222656 -92.820312 86.359375 -94.125 C 85.492188 -95.4375 84.144531 -96.066406 82.3125 -96.015625 C 80.675781 -95.960938 78.5 -95.175781 75.78125 -93.65625 C 73.0625 -92.132812 69.703125 -89.578125 65.703125 -85.984375 C 62.296875 -83.003906 57.757812 -78.609375 52.09375 -72.796875 C 46.4375 -66.984375 40.734375 -60.707031 34.984375 -53.96875 C 33.203125 -51.863281 30.671875 -48.914062 27.390625 -45.125 C 24.117188 -41.34375 20.757812 -37.140625 17.3125 -32.515625 C 13.875 -27.898438 10.988281 -23.40625 8.65625 -19.03125 C 6.320312 -14.65625 5.207031 -10.828125 5.3125 -7.546875 C 5.351562 -6.117188 5.894531 -5.0625 6.9375 -4.375 C 7.988281 -3.6875 9.128906 -3.359375 10.359375 -3.390625 Z M 10.359375 -3.390625 "/></g></g></g><g fill="#ffffff" fill-opacity="1"><g transform="translate(765.589507, 430.186779)"><g><path d="M 5.546875 0.140625 C -2.035156 0.367188 -5.957031 -3.820312 -6.21875 -12.4375 C -6.375 -17.34375 -5.117188 -23.269531 -2.453125 -30.21875 C 0.210938 -37.175781 4.300781 -44.53125 9.8125 -52.28125 C 13.75 -57.53125 18.597656 -63.164062 24.359375 -69.1875 C 30.128906 -75.207031 36.46875 -80.984375 43.375 -86.515625 C 50.28125 -92.054688 57.367188 -96.628906 64.640625 -100.234375 C 71.921875 -103.835938 79.039062 -105.742188 86 -105.953125 C 89.070312 -106.046875 91.238281 -105.648438 92.5 -104.765625 C 93.769531 -103.878906 94.625 -102.9375 95.0625 -101.9375 C 95.488281 -101.125 95.550781 -100.507812 95.25 -100.09375 C 94.957031 -99.675781 94.609375 -99.5625 94.203125 -99.75 C 93.367188 -100.144531 91.722656 -100.300781 89.265625 -100.21875 C 81.898438 -100 73.25 -96.203125 63.3125 -88.828125 C 53.382812 -81.453125 43.671875 -71.976562 34.171875 -60.40625 C 27.429688 -52.40625 21.921875 -44.597656 17.640625 -36.984375 C 13.367188 -29.367188 10.59375 -23.078125 9.3125 -18.109375 C 8.9375 -16.472656 8.769531 -15.039062 8.8125 -13.8125 C 8.894531 -10.9375 10.066406 -9.53125 12.328125 -9.59375 C 13.765625 -9.644531 15.6875 -10.375 18.09375 -11.78125 C 20.507812 -13.1875 23.617188 -15.582031 27.421875 -18.96875 C 33.398438 -24.488281 39.300781 -30.925781 45.125 -38.28125 C 50.957031 -45.632812 56.734375 -53.140625 62.453125 -60.796875 C 68.171875 -68.460938 73.75 -75.550781 79.1875 -82.0625 C 84.632812 -88.582031 89.867188 -93.5625 94.890625 -97 C 101.328125 -101.5 105.816406 -104.09375 108.359375 -104.78125 C 110.898438 -105.476562 112.984375 -105.957031 114.609375 -106.21875 C 113.628906 -104.957031 111.460938 -102.019531 108.109375 -97.40625 C 104.765625 -92.789062 101.21875 -87.914062 97.46875 -82.78125 C 93.726562 -77.644531 90.679688 -73.398438 88.328125 -70.046875 C 84.804688 -64.597656 81.035156 -58.738281 77.015625 -52.46875 C 73.003906 -46.195312 69.382812 -40.289062 66.15625 -34.75 C 62.9375 -29.21875 60.769531 -24.695312 59.65625 -21.1875 C 58.738281 -17.675781 58.300781 -15.101562 58.34375 -13.46875 C 58.445312 -10.1875 59.832031 -8.582031 62.5 -8.65625 C 64.34375 -8.71875 66.519531 -9.554688 69.03125 -11.171875 C 71.550781 -12.785156 74.113281 -14.65625 76.71875 -16.78125 C 80.113281 -19.738281 83.296875 -22.851562 86.265625 -26.125 C 89.242188 -29.40625 92.316406 -33.039062 95.484375 -37.03125 C 96.296875 -37.050781 96.722656 -36.445312 96.765625 -35.21875 C 96.816406 -33.375 96.453125 -31.929688 95.671875 -30.890625 C 93.097656 -27.734375 89.972656 -24.253906 86.296875 -20.453125 C 82.617188 -16.648438 78.976562 -13.257812 75.375 -10.28125 C 72.769531 -7.945312 69.75 -5.90625 66.3125 -4.15625 C 62.882812 -2.40625 59.53125 -1.484375 56.25 -1.390625 C 51.550781 -1.242188 48.242188 -2.269531 46.328125 -4.46875 C 44.421875 -6.664062 43.410156 -9.507812 43.296875 -13 C 43.179688 -17.082031 43.972656 -21.5625 45.671875 -26.4375 C 47.367188 -31.3125 49.269531 -35.941406 51.375 -40.328125 C 48.820312 -36.960938 45.5625 -32.910156 41.59375 -28.171875 C 37.632812 -23.429688 34.0625 -19.484375 30.875 -16.328125 C 26.488281 -12.085938 22.296875 -8.316406 18.296875 -5.015625 C 14.304688 -1.710938 10.054688 0.00390625 5.546875 0.140625 Z M 10.078125 38.15625 C 8.023438 38.21875 6.3125 37.597656 4.9375 36.296875 C 3.570312 35.003906 2.859375 33.335938 2.796875 31.296875 C 2.703125 28.421875 3.75 25.875 5.9375 23.65625 C 8.132812 21.4375 10.566406 20.289062 13.234375 20.21875 C 15.492188 20.144531 17.253906 20.753906 18.515625 22.046875 C 19.785156 23.347656 20.453125 25.019531 20.515625 27.0625 C 20.585938 29.726562 19.53125 32.222656 17.34375 34.546875 C 15.164062 36.867188 12.742188 38.070312 10.078125 38.15625 Z M 10.078125 38.15625 "/></g></g></g><g fill="#ffffff" fill-opacity="1"><g transform="translate(861.180185, 427.296573)"><g><path d="M 48.578125 -1.15625 C 44.273438 -1.019531 41.164062 -2.101562 39.25 -4.40625 C 37.332031 -6.71875 36.316406 -9.71875 36.203125 -13.40625 C 36.035156 -18.9375 37.789062 -25.289062 41.46875 -32.46875 C 45.15625 -39.65625 50.003906 -47.238281 56.015625 -55.21875 C 62.023438 -63.195312 68.347656 -71.078125 74.984375 -78.859375 C 81.617188 -86.640625 87.914062 -93.804688 93.875 -100.359375 C 90.800781 -100.265625 87.492188 -99.34375 83.953125 -97.59375 C 80.421875 -95.851562 76.847656 -93.796875 73.234375 -91.421875 C 67.804688 -87.578125 61.90625 -82.476562 55.53125 -76.125 C 49.164062 -69.78125 42.804688 -63.023438 36.453125 -55.859375 C 30.109375 -48.703125 24.066406 -41.644531 18.328125 -34.6875 C 13.785156 -29.019531 10.1875 -24.300781 7.53125 -20.53125 C 4.875 -16.769531 2.617188 -13.367188 0.765625 -10.328125 C -1.085938 -7.296875 -3.09375 -3.90625 -5.25 -0.15625 C -8.519531 -0.0507812 -10.210938 -1.945312 -10.328125 -5.84375 C -10.453125 -9.9375 -9.316406 -14.890625 -6.921875 -20.703125 C -4.535156 -26.515625 -2.472656 -31.09375 -0.734375 -34.4375 C 4.316406 -43.613281 10.125 -53.273438 16.6875 -63.421875 C 23.257812 -73.566406 29.40625 -82.515625 35.125 -90.265625 C 38.070312 -94.460938 41.253906 -97.585938 44.671875 -99.640625 C 48.085938 -101.691406 51.015625 -103.007812 53.453125 -103.59375 C 55.898438 -104.1875 57.125 -104.484375 57.125 -104.484375 C 55.957031 -102.597656 53.515625 -98.625 49.796875 -92.5625 C 46.085938 -86.507812 41.789062 -79.410156 36.90625 -71.265625 C 32.03125 -63.117188 27.050781 -54.863281 21.96875 -46.5 C 30.082031 -56.382812 38.816406 -66.03125 48.171875 -75.4375 C 57.523438 -84.84375 66.523438 -92.550781 75.171875 -98.5625 C 77.785156 -100.488281 80.503906 -102.109375 83.328125 -103.421875 C 86.148438 -104.734375 89.097656 -105.4375 92.171875 -105.53125 C 97.703125 -105.695312 100.535156 -103.628906 100.671875 -99.328125 C 100.765625 -96.046875 98.929688 -92.097656 95.171875 -87.484375 C 90.640625 -81.804688 85.707031 -75.5 80.375 -68.5625 C 75.050781 -61.632812 69.984375 -54.613281 65.171875 -47.5 C 60.359375 -40.382812 56.453125 -33.804688 53.453125 -27.765625 C 50.460938 -21.722656 49.019531 -16.863281 49.125 -13.1875 C 49.1875 -11.132812 49.796875 -9.660156 50.953125 -8.765625 C 52.109375 -7.878906 53.097656 -7.453125 53.921875 -7.484375 C 56.992188 -7.578125 60.382812 -8.910156 64.09375 -11.484375 C 67.8125 -14.054688 71.414062 -17.082031 74.90625 -20.5625 C 78.394531 -24.050781 81.472656 -27.375 84.140625 -30.53125 C 86.804688 -33.6875 88.535156 -35.789062 89.328125 -36.84375 C 90.148438 -36.863281 90.582031 -36.257812 90.625 -35.03125 C 90.675781 -33.1875 90.304688 -31.742188 89.515625 -30.703125 C 86.734375 -27.535156 83.054688 -23.628906 78.484375 -18.984375 C 73.910156 -14.335938 69.007812 -10.238281 63.78125 -6.6875 C 58.5625 -3.144531 53.492188 -1.300781 48.578125 -1.15625 Z M 48.578125 -1.15625 "/></g></g></g><g fill="#ffffff" fill-opacity="1"><g transform="translate(951.545642, 424.564352)"><g/></g></g><g fill="#ffffff" fill-opacity="1"><g transform="translate(1000.724191, 423.077427)"><g><path d="M 48.578125 -1.15625 C 44.273438 -1.019531 41.164062 -2.101562 39.25 -4.40625 C 37.332031 -6.71875 36.316406 -9.71875 36.203125 -13.40625 C 36.035156 -18.9375 37.789062 -25.289062 41.46875 -32.46875 C 45.15625 -39.65625 50.003906 -47.238281 56.015625 -55.21875 C 62.023438 -63.195312 68.347656 -71.078125 74.984375 -78.859375 C 81.617188 -86.640625 87.914062 -93.804688 93.875 -100.359375 C 90.800781 -100.265625 87.492188 -99.34375 83.953125 -97.59375 C 80.421875 -95.851562 76.847656 -93.796875 73.234375 -91.421875 C 67.804688 -87.578125 61.90625 -82.476562 55.53125 -76.125 C 49.164062 -69.78125 42.804688 -63.023438 36.453125 -55.859375 C 30.109375 -48.703125 24.066406 -41.644531 18.328125 -34.6875 C 13.785156 -29.019531 10.1875 -24.300781 7.53125 -20.53125 C 4.875 -16.769531 2.617188 -13.367188 0.765625 -10.328125 C -1.085938 -7.296875 -3.09375 -3.90625 -5.25 -0.15625 C -8.519531 -0.0507812 -10.210938 -1.945312 -10.328125 -5.84375 C -10.453125 -9.9375 -9.316406 -14.890625 -6.921875 -20.703125 C -4.535156 -26.515625 -2.472656 -31.09375 -0.734375 -34.4375 C 4.316406 -43.613281 10.125 -53.273438 16.6875 -63.421875 C 23.257812 -73.566406 29.40625 -82.515625 35.125 -90.265625 C 38.070312 -94.460938 41.253906 -97.585938 44.671875 -99.640625 C 48.085938 -101.691406 51.015625 -103.007812 53.453125 -103.59375 C 55.898438 -104.1875 57.125 -104.484375 57.125 -104.484375 C 55.957031 -102.597656 53.515625 -98.625 49.796875 -92.5625 C 46.085938 -86.507812 41.789062 -79.410156 36.90625 -71.265625 C 32.03125 -63.117188 27.050781 -54.863281 21.96875 -46.5 C 30.082031 -56.382812 38.816406 -66.03125 48.171875 -75.4375 C 57.523438 -84.84375 66.523438 -92.550781 75.171875 -98.5625 C 77.785156 -100.488281 80.503906 -102.109375 83.328125 -103.421875 C 86.148438 -104.734375 89.097656 -105.4375 92.171875 -105.53125 C 97.703125 -105.695312 100.535156 -103.628906 100.671875 -99.328125 C 100.765625 -96.046875 98.929688 -92.097656 95.171875 -87.484375 C 90.640625 -81.804688 85.707031 -75.5 80.375 -68.5625 C 75.050781 -61.632812 69.984375 -54.613281 65.171875 -47.5 C 60.359375 -40.382812 56.453125 -33.804688 53.453125 -27.765625 C 50.460938 -21.722656 49.019531 -16.863281 49.125 -13.1875 C 49.1875 -11.132812 49.796875 -9.660156 50.953125 -8.765625 C 52.109375 -7.878906 53.097656 -7.453125 53.921875 -7.484375 C 56.992188 -7.578125 60.382812 -8.910156 64.09375 -11.484375 C 67.8125 -14.054688 71.414062 -17.082031 74.90625 -20.5625 C 78.394531 -24.050781 81.472656 -27.375 84.140625 -30.53125 C 86.804688 -33.6875 88.535156 -35.789062 89.328125 -36.84375 C 90.148438 -36.863281 90.582031 -36.257812 90.625 -35.03125 C 90.675781 -33.1875 90.304688 -31.742188 89.515625 -30.703125 C 86.734375 -27.535156 83.054688 -23.628906 78.484375 -18.984375 C 73.910156 -14.335938 69.007812 -10.238281 63.78125 -6.6875 C 58.5625 -3.144531 53.492188 -1.300781 48.578125 -1.15625 Z M 48.578125 -1.15625 "/></g></g></g><g fill="#ffffff" fill-opacity="1"><g transform="translate(1091.089726, 420.345204)"><g><path d="M 46.453125 -0.171875 C 42.753906 -0.0546875 40.0625 -0.898438 38.375 -2.703125 C 36.6875 -4.503906 35.796875 -6.835938 35.703125 -9.703125 C 35.628906 -12.160156 36.140625 -15.65625 37.234375 -20.1875 C 39.671875 -27.65625 43.332031 -35.304688 48.21875 -43.140625 C 53.101562 -50.984375 58.460938 -58.53125 64.296875 -65.78125 C 70.140625 -73.039062 75.734375 -79.671875 81.078125 -85.671875 C 86.429688 -91.671875 90.695312 -96.566406 93.875 -100.359375 C 90.800781 -100.265625 87.492188 -99.34375 83.953125 -97.59375 C 80.421875 -95.851562 76.847656 -93.796875 73.234375 -91.421875 C 64.597656 -85.015625 55.953125 -77.472656 47.296875 -68.796875 C 38.640625 -60.128906 30.601562 -51.273438 23.1875 -42.234375 C 15.769531 -33.191406 9.503906 -24.898438 4.390625 -17.359375 C -0.710938 -9.828125 -3.921875 -3.988281 -5.234375 0.15625 C -8.503906 0.257812 -10.203125 -1.738281 -10.328125 -5.84375 C -10.429688 -9.320312 -9.535156 -13.703125 -7.640625 -18.984375 C -5.753906 -24.273438 -3.359375 -29.632812 -0.453125 -35.0625 C 6.160156 -46.9375 14.332031 -59.84375 24.0625 -73.78125 C 33.800781 -87.71875 43.921875 -100.796875 54.421875 -113.015625 C 63.734375 -123.960938 73.894531 -133.910156 84.90625 -142.859375 C 95.914062 -151.804688 107.507812 -158.203125 119.6875 -162.046875 C 121.519531 -162.710938 123.660156 -163.285156 126.109375 -163.765625 C 128.554688 -164.253906 131.113281 -164.539062 133.78125 -164.625 C 138.695312 -164.769531 142.921875 -164.179688 146.453125 -162.859375 C 148.097656 -162.078125 149.757812 -161.050781 151.4375 -159.78125 C 153.125 -158.507812 154.3125 -156.648438 155 -154.203125 C 152.6875 -155.984375 150.082031 -157.285156 147.1875 -158.109375 C 144.289062 -158.941406 140.796875 -159.300781 136.703125 -159.1875 C 128.703125 -158.9375 120.625 -156.378906 112.46875 -151.515625 C 104.3125 -146.660156 96.59375 -140.84375 89.3125 -134.0625 C 82.039062 -127.28125 75.679688 -120.578125 70.234375 -113.953125 C 64.796875 -107.328125 60.59375 -102.125 57.625 -98.34375 C 49.9375 -88.269531 43.195312 -78.882812 37.40625 -70.1875 C 31.613281 -61.5 26.757812 -54.128906 22.84375 -48.078125 C 30.769531 -57.335938 39.460938 -66.671875 48.921875 -76.078125 C 58.378906 -85.484375 67.128906 -92.976562 75.171875 -98.5625 C 77.785156 -100.488281 80.503906 -102.109375 83.328125 -103.421875 C 86.148438 -104.734375 89.097656 -105.4375 92.171875 -105.53125 C 97.703125 -105.695312 100.535156 -103.628906 100.671875 -99.328125 C 100.765625 -96.046875 98.929688 -92.097656 95.171875 -87.484375 C 88.242188 -79.066406 81.242188 -69.773438 74.171875 -59.609375 C 67.097656 -49.453125 61.144531 -39.378906 56.3125 -29.390625 C 55.550781 -27.921875 54.257812 -25.0625 52.4375 -20.8125 C 50.625 -16.5625 49.757812 -13 49.84375 -10.125 C 49.914062 -7.664062 51.070312 -6.46875 53.3125 -6.53125 C 58.03125 -6.675781 63.679688 -9.867188 70.265625 -16.109375 C 76.847656 -22.359375 83.203125 -29.269531 89.328125 -36.84375 C 90.148438 -36.863281 90.582031 -36.257812 90.625 -35.03125 C 90.675781 -33.1875 90.304688 -31.742188 89.515625 -30.703125 C 86.734375 -27.535156 83.210938 -23.582031 78.953125 -18.84375 C 74.691406 -14.101562 69.84375 -9.851562 64.40625 -6.09375 C 58.976562 -2.34375 52.992188 -0.367188 46.453125 -0.171875 Z M 46.453125 -0.171875 "/></g></g></g><g fill="#ffffff" fill-opacity="1"><g transform="translate(1181.455183, 417.612983)"><g><path d="M 5.546875 0.140625 C -2.035156 0.367188 -5.957031 -3.820312 -6.21875 -12.4375 C -6.375 -17.34375 -5.117188 -23.269531 -2.453125 -30.21875 C 0.210938 -37.175781 4.300781 -44.53125 9.8125 -52.28125 C 13.75 -57.53125 18.597656 -63.164062 24.359375 -69.1875 C 30.128906 -75.207031 36.46875 -80.984375 43.375 -86.515625 C 50.28125 -92.054688 57.367188 -96.628906 64.640625 -100.234375 C 71.921875 -103.835938 79.039062 -105.742188 86 -105.953125 C 89.070312 -106.046875 91.238281 -105.648438 92.5 -104.765625 C 93.769531 -103.878906 94.625 -102.9375 95.0625 -101.9375 C 95.488281 -101.125 95.550781 -100.507812 95.25 -100.09375 C 94.957031 -99.675781 94.609375 -99.5625 94.203125 -99.75 C 93.367188 -100.144531 91.722656 -100.300781 89.265625 -100.21875 C 81.898438 -100 73.25 -96.203125 63.3125 -88.828125 C 53.382812 -81.453125 43.671875 -71.976562 34.171875 -60.40625 C 27.429688 -52.40625 21.921875 -44.597656 17.640625 -36.984375 C 13.367188 -29.367188 10.59375 -23.078125 9.3125 -18.109375 C 8.9375 -16.472656 8.769531 -15.039062 8.8125 -13.8125 C 8.894531 -10.9375 10.066406 -9.53125 12.328125 -9.59375 C 13.765625 -9.644531 15.6875 -10.375 18.09375 -11.78125 C 20.507812 -13.1875 23.617188 -15.582031 27.421875 -18.96875 C 33.398438 -24.488281 39.300781 -30.925781 45.125 -38.28125 C 50.957031 -45.632812 56.734375 -53.140625 62.453125 -60.796875 C 68.171875 -68.460938 73.75 -75.550781 79.1875 -82.0625 C 84.632812 -88.582031 89.867188 -93.5625 94.890625 -97 C 101.328125 -101.5 105.816406 -104.09375 108.359375 -104.78125 C 110.898438 -105.476562 112.984375 -105.957031 114.609375 -106.21875 C 113.628906 -104.957031 111.460938 -102.019531 108.109375 -97.40625 C 104.765625 -92.789062 101.21875 -87.914062 97.46875 -82.78125 C 93.726562 -77.644531 90.679688 -73.398438 88.328125 -70.046875 C 84.804688 -64.597656 81.035156 -58.738281 77.015625 -52.46875 C 73.003906 -46.195312 69.382812 -40.289062 66.15625 -34.75 C 62.9375 -29.21875 60.769531 -24.695312 59.65625 -21.1875 C 58.738281 -17.675781 58.300781 -15.101562 58.34375 -13.46875 C 58.445312 -10.1875 59.832031 -8.582031 62.5 -8.65625 C 64.34375 -8.71875 66.519531 -9.554688 69.03125 -11.171875 C 71.550781 -12.785156 74.113281 -14.65625 76.71875 -16.78125 C 80.113281 -19.738281 83.296875 -22.851562 86.265625 -26.125 C 89.242188 -29.40625 92.316406 -33.039062 95.484375 -37.03125 C 96.296875 -37.050781 96.722656 -36.445312 96.765625 -35.21875 C 96.816406 -33.375 96.453125 -31.929688 95.671875 -30.890625 C 93.097656 -27.734375 89.972656 -24.253906 86.296875 -20.453125 C 82.617188 -16.648438 78.976562 -13.257812 75.375 -10.28125 C 72.769531 -7.945312 69.75 -5.90625 66.3125 -4.15625 C 62.882812 -2.40625 59.53125 -1.484375 56.25 -1.390625 C 51.550781 -1.242188 48.242188 -2.269531 46.328125 -4.46875 C 44.421875 -6.664062 43.410156 -9.507812 43.296875 -13 C 43.179688 -17.082031 43.972656 -21.5625 45.671875 -26.4375 C 47.367188 -31.3125 49.269531 -35.941406 51.375 -40.328125 C 48.820312 -36.960938 45.5625 -32.910156 41.59375 -28.171875 C 37.632812 -23.429688 34.0625 -19.484375 30.875 -16.328125 C 26.488281 -12.085938 22.296875 -8.316406 18.296875 -5.015625 C 14.304688 -1.710938 10.054688 0.00390625 5.546875 0.140625 Z M 5.546875 0.140625 "/></g></g></g><g fill="#ffffff" fill-opacity="1"><g transform="translate(1277.045861, 414.722776)"><g><path d="M 32.84375 -32.984375 L 96.0625 -140.109375 C 98.007812 -143.242188 100.546875 -145.78125 103.671875 -147.71875 C 106.796875 -149.664062 109.585938 -150.675781 112.046875 -150.75 C 116.335938 -150.882812 118.242188 -148.6875 117.765625 -144.15625 C 117.367188 -143.726562 115.644531 -141.414062 112.59375 -137.21875 C 109.550781 -133.019531 105.613281 -127.566406 100.78125 -120.859375 C 95.957031 -114.160156 90.691406 -106.929688 84.984375 -99.171875 C 79.273438 -91.410156 73.613281 -83.648438 68 -75.890625 C 62.382812 -68.128906 57.210938 -61 52.484375 -54.5 C 47.765625 -48 43.976562 -42.804688 41.125 -38.921875 C 38.269531 -35.046875 36.84375 -33.109375 36.84375 -33.109375 Z M 19.078125 0.34375 C 15.398438 0.457031 13.507812 -1.125 13.40625 -4.40625 C 13.3125 -7.6875 14.804688 -10.707031 17.890625 -13.46875 C 20.984375 -16.226562 24.171875 -17.65625 27.453125 -17.75 C 31.140625 -17.863281 33.035156 -16.179688 33.140625 -12.703125 C 33.242188 -9.421875 31.796875 -6.453125 28.796875 -3.796875 C 25.804688 -1.140625 22.566406 0.238281 19.078125 0.34375 Z M 19.078125 0.34375 "/></g></g></g></g></g></svg>